<mxfile host="Electron" modified="2023-05-03T11:22:41.967Z" agent="Mozilla/5.0 (X11; Linux x86_64) AppleWebKit/537.36 (KHTML, like Gecko) draw.io/21.1.2 Chrome/106.0.5249.199 Electron/21.4.3 Safari/537.36" etag="1dOn3Q3duTsewloAhaPa" version="21.1.2" type="device">
  <diagram name="Page-1" id="6133507b-19e7-1e82-6fc7-422aa6c4b21f">
    <mxGraphModel dx="3940" dy="1644" grid="0" gridSize="10" guides="1" tooltips="1" connect="1" arrows="1" fold="1" page="1" pageScale="1" pageWidth="1100" pageHeight="850" background="#A9C4EB" math="0" shadow="0">
      <root>
        <mxCell id="0" />
        <mxCell id="1" parent="0" />
        <mxCell id="TKWjIK_nqhg0Qx_Ndcxz-42" style="edgeStyle=orthogonalEdgeStyle;rounded=0;orthogonalLoop=1;jettySize=auto;html=1;exitX=0;exitY=0;exitDx=0;exitDy=35;exitPerimeter=0;entryX=1;entryY=0.5;entryDx=0;entryDy=0;" parent="1" source="TKWjIK_nqhg0Qx_Ndcxz-37" target="TKWjIK_nqhg0Qx_Ndcxz-40" edge="1">
          <mxGeometry relative="1" as="geometry" />
        </mxCell>
        <mxCell id="TKWjIK_nqhg0Qx_Ndcxz-37" value="&lt;font style=&quot;font-size: 22px;&quot;&gt;Measurements Processor&lt;/font&gt;" style="shape=module;align=left;spacingLeft=20;align=center;verticalAlign=top;whiteSpace=wrap;html=1;" parent="1" vertex="1">
          <mxGeometry x="-893" y="631" width="1846" height="1041" as="geometry" />
        </mxCell>
        <mxCell id="jgLlG5gbJCbwpfzQCMnW-12" value="LoopDetector" style="swimlane;html=1;fontStyle=1;align=center;verticalAlign=top;childLayout=stackLayout;horizontal=1;startSize=26;horizontalStack=0;resizeParent=1;resizeLast=0;collapsible=1;marginBottom=0;swimlaneFillColor=#ffffff;rounded=0;shadow=0;comic=0;labelBackgroundColor=none;strokeWidth=1;fillColor=none;fontFamily=Verdana;fontSize=12" parent="1" vertex="1">
          <mxGeometry x="393" y="125" width="160" height="190" as="geometry" />
        </mxCell>
        <mxCell id="jgLlG5gbJCbwpfzQCMnW-13" value="+ num_loops: int" style="text;html=1;strokeColor=none;fillColor=none;align=left;verticalAlign=top;spacingLeft=4;spacingRight=4;whiteSpace=wrap;overflow=hidden;rotatable=0;points=[[0,0.5],[1,0.5]];portConstraint=eastwest;" parent="jgLlG5gbJCbwpfzQCMnW-12" vertex="1">
          <mxGeometry y="26" width="160" height="26" as="geometry" />
        </mxCell>
        <mxCell id="jgLlG5gbJCbwpfzQCMnW-14" value="+ loop_type:&amp;nbsp;" style="text;html=1;strokeColor=none;fillColor=none;align=left;verticalAlign=top;spacingLeft=4;spacingRight=4;whiteSpace=wrap;overflow=hidden;rotatable=0;points=[[0,0.5],[1,0.5]];portConstraint=eastwest;" parent="jgLlG5gbJCbwpfzQCMnW-12" vertex="1">
          <mxGeometry y="52" width="160" height="26" as="geometry" />
        </mxCell>
        <mxCell id="jgLlG5gbJCbwpfzQCMnW-15" value="+ loop_likelihood: float" style="text;html=1;strokeColor=none;fillColor=none;align=left;verticalAlign=top;spacingLeft=4;spacingRight=4;whiteSpace=wrap;overflow=hidden;rotatable=0;points=[[0,0.5],[1,0.5]];portConstraint=eastwest;" parent="jgLlG5gbJCbwpfzQCMnW-12" vertex="1">
          <mxGeometry y="78" width="160" height="26" as="geometry" />
        </mxCell>
        <mxCell id="jgLlG5gbJCbwpfzQCMnW-16" value="" style="line;html=1;strokeWidth=1;fillColor=none;align=left;verticalAlign=middle;spacingTop=-1;spacingLeft=3;spacingRight=3;rotatable=0;labelPosition=right;points=[];portConstraint=eastwest;" parent="jgLlG5gbJCbwpfzQCMnW-12" vertex="1">
          <mxGeometry y="104" width="160" height="8" as="geometry" />
        </mxCell>
        <mxCell id="jgLlG5gbJCbwpfzQCMnW-17" value="+ find_loops():" style="text;html=1;strokeColor=none;fillColor=none;align=left;verticalAlign=top;spacingLeft=4;spacingRight=4;whiteSpace=wrap;overflow=hidden;rotatable=0;points=[[0,0.5],[1,0.5]];portConstraint=eastwest;" parent="jgLlG5gbJCbwpfzQCMnW-12" vertex="1">
          <mxGeometry y="112" width="160" height="26" as="geometry" />
        </mxCell>
        <mxCell id="jgLlG5gbJCbwpfzQCMnW-18" value="+ add_loop():" style="text;html=1;strokeColor=none;fillColor=none;align=left;verticalAlign=top;spacingLeft=4;spacingRight=4;whiteSpace=wrap;overflow=hidden;rotatable=0;points=[[0,0.5],[1,0.5]];portConstraint=eastwest;" parent="jgLlG5gbJCbwpfzQCMnW-12" vertex="1">
          <mxGeometry y="138" width="160" height="26" as="geometry" />
        </mxCell>
        <mxCell id="jgLlG5gbJCbwpfzQCMnW-19" value="+ remove_loop()" style="text;html=1;strokeColor=none;fillColor=none;align=left;verticalAlign=top;spacingLeft=4;spacingRight=4;whiteSpace=wrap;overflow=hidden;rotatable=0;points=[[0,0.5],[1,0.5]];portConstraint=eastwest;" parent="jgLlG5gbJCbwpfzQCMnW-12" vertex="1">
          <mxGeometry y="164" width="160" height="26" as="geometry" />
        </mxCell>
        <mxCell id="TKWjIK_nqhg0Qx_Ndcxz-6" style="edgeStyle=orthogonalEdgeStyle;rounded=0;orthogonalLoop=1;jettySize=auto;html=1;entryX=0;entryY=0.5;entryDx=0;entryDy=0;" parent="1" source="TKWjIK_nqhg0Qx_Ndcxz-1" target="TKWjIK_nqhg0Qx_Ndcxz-5" edge="1">
          <mxGeometry relative="1" as="geometry" />
        </mxCell>
        <mxCell id="TKWjIK_nqhg0Qx_Ndcxz-1" value="&lt;font style=&quot;&quot;&gt;&lt;span style=&quot;font-size: 20px;&quot;&gt;Measurements Processor&lt;/span&gt;&lt;br&gt;&lt;font style=&quot;font-size: 16px;&quot;&gt;(process raw measurement chunks and creates factors)&lt;/font&gt;&lt;br&gt;&lt;/font&gt;" style="rounded=1;whiteSpace=wrap;html=1;" parent="1" vertex="1">
          <mxGeometry x="-821" y="189" width="222" height="160" as="geometry" />
        </mxCell>
        <mxCell id="TKWjIK_nqhg0Qx_Ndcxz-3" style="edgeStyle=orthogonalEdgeStyle;rounded=0;orthogonalLoop=1;jettySize=auto;html=1;entryX=0;entryY=0.5;entryDx=0;entryDy=0;" parent="1" source="TKWjIK_nqhg0Qx_Ndcxz-2" target="TKWjIK_nqhg0Qx_Ndcxz-1" edge="1">
          <mxGeometry relative="1" as="geometry" />
        </mxCell>
        <mxCell id="TKWjIK_nqhg0Qx_Ndcxz-7" style="edgeStyle=orthogonalEdgeStyle;rounded=0;orthogonalLoop=1;jettySize=auto;html=1;entryX=0.5;entryY=1;entryDx=0;entryDy=0;exitX=1;exitY=0.5;exitDx=0;exitDy=0;" parent="1" source="TKWjIK_nqhg0Qx_Ndcxz-2" target="TKWjIK_nqhg0Qx_Ndcxz-5" edge="1">
          <mxGeometry relative="1" as="geometry">
            <Array as="points">
              <mxPoint x="-883" y="269" />
              <mxPoint x="-883" y="393" />
              <mxPoint x="-437" y="393" />
            </Array>
          </mxGeometry>
        </mxCell>
        <mxCell id="TKWjIK_nqhg0Qx_Ndcxz-31" style="edgeStyle=orthogonalEdgeStyle;rounded=0;orthogonalLoop=1;jettySize=auto;html=1;entryX=0;entryY=0.5;entryDx=0;entryDy=0;" parent="1" source="TKWjIK_nqhg0Qx_Ndcxz-2" target="TKWjIK_nqhg0Qx_Ndcxz-4" edge="1">
          <mxGeometry relative="1" as="geometry">
            <Array as="points">
              <mxPoint x="-883" y="269" />
              <mxPoint x="-883" y="108" />
            </Array>
          </mxGeometry>
        </mxCell>
        <mxCell id="TKWjIK_nqhg0Qx_Ndcxz-2" value="&lt;font style=&quot;font-size: 22px;&quot;&gt;Data chunk&lt;/font&gt;" style="rounded=1;whiteSpace=wrap;html=1;fillColor=#ffe6cc;strokeColor=#d79b00;" parent="1" vertex="1">
          <mxGeometry x="-1047" y="239" width="120" height="60" as="geometry" />
        </mxCell>
        <mxCell id="TKWjIK_nqhg0Qx_Ndcxz-33" style="edgeStyle=orthogonalEdgeStyle;rounded=0;orthogonalLoop=1;jettySize=auto;html=1;entryX=0.5;entryY=0;entryDx=0;entryDy=0;" parent="1" source="TKWjIK_nqhg0Qx_Ndcxz-4" target="TKWjIK_nqhg0Qx_Ndcxz-5" edge="1">
          <mxGeometry relative="1" as="geometry" />
        </mxCell>
        <mxCell id="TKWjIK_nqhg0Qx_Ndcxz-4" value="&lt;font style=&quot;&quot;&gt;&lt;span style=&quot;font-size: 20px;&quot;&gt;Loop Detector&amp;nbsp;&lt;/span&gt;&lt;br&gt;&lt;font style=&quot;font-size: 16px;&quot;&gt;(Tracks loops based on geometry/symantics)&lt;/font&gt;&lt;br&gt;&lt;/font&gt;" style="rounded=1;whiteSpace=wrap;html=1;" parent="1" vertex="1">
          <mxGeometry x="-803" y="68" width="180" height="80" as="geometry" />
        </mxCell>
        <mxCell id="TKWjIK_nqhg0Qx_Ndcxz-12" style="edgeStyle=orthogonalEdgeStyle;rounded=0;orthogonalLoop=1;jettySize=auto;html=1;entryX=0;entryY=0.5;entryDx=0;entryDy=0;" parent="1" source="TKWjIK_nqhg0Qx_Ndcxz-5" target="TKWjIK_nqhg0Qx_Ndcxz-11" edge="1">
          <mxGeometry relative="1" as="geometry" />
        </mxCell>
        <mxCell id="TKWjIK_nqhg0Qx_Ndcxz-5" value="&lt;font style=&quot;&quot;&gt;&lt;span style=&quot;font-size: 20px;&quot;&gt;Anomaly Detector&lt;/span&gt;&lt;br&gt;&lt;font style=&quot;font-size: 16px;&quot;&gt;(ML/DL-based detector of anomalies in factors and raw measurements)&lt;/font&gt;&lt;br&gt;&lt;/font&gt;" style="rounded=1;whiteSpace=wrap;html=1;" parent="1" vertex="1">
          <mxGeometry x="-531" y="229" width="188" height="80" as="geometry" />
        </mxCell>
        <mxCell id="TKWjIK_nqhg0Qx_Ndcxz-11" value="&lt;font style=&quot;&quot;&gt;&lt;span style=&quot;font-size: 20px;&quot;&gt;Graph Builder&lt;/span&gt;&lt;br&gt;&lt;font style=&quot;font-size: 16px;&quot;&gt;(creates factor graph based on processed measurements and sensor setup)&lt;/font&gt;&lt;br&gt;&lt;/font&gt;" style="rounded=1;whiteSpace=wrap;html=1;" parent="1" vertex="1">
          <mxGeometry x="-258" y="189" width="160" height="160" as="geometry" />
        </mxCell>
        <mxCell id="TKWjIK_nqhg0Qx_Ndcxz-14" style="edgeStyle=orthogonalEdgeStyle;rounded=0;orthogonalLoop=1;jettySize=auto;html=1;entryX=0.5;entryY=0;entryDx=0;entryDy=0;" parent="1" source="TKWjIK_nqhg0Qx_Ndcxz-13" target="TKWjIK_nqhg0Qx_Ndcxz-11" edge="1">
          <mxGeometry relative="1" as="geometry" />
        </mxCell>
        <mxCell id="TKWjIK_nqhg0Qx_Ndcxz-32" style="edgeStyle=orthogonalEdgeStyle;rounded=0;orthogonalLoop=1;jettySize=auto;html=1;entryX=0.5;entryY=0;entryDx=0;entryDy=0;" parent="1" source="TKWjIK_nqhg0Qx_Ndcxz-13" target="TKWjIK_nqhg0Qx_Ndcxz-4" edge="1">
          <mxGeometry relative="1" as="geometry" />
        </mxCell>
        <mxCell id="TKWjIK_nqhg0Qx_Ndcxz-13" value="&lt;span style=&quot;font-size: 22px;&quot;&gt;Backend&lt;br&gt;(sends updated graph&lt;br&gt;&lt;/span&gt;" style="rounded=1;whiteSpace=wrap;html=1;fillColor=#d5e8d4;strokeColor=#82b366;" parent="1" vertex="1">
          <mxGeometry x="-292" y="17" width="228" height="60" as="geometry" />
        </mxCell>
        <mxCell id="TKWjIK_nqhg0Qx_Ndcxz-15" value="AnomalyDetector" style="swimlane;html=1;fontStyle=1;align=center;verticalAlign=top;childLayout=stackLayout;horizontal=1;startSize=26;horizontalStack=0;resizeParent=1;resizeLast=0;collapsible=1;marginBottom=0;swimlaneFillColor=#ffffff;rounded=0;shadow=0;comic=0;labelBackgroundColor=none;strokeWidth=1;fillColor=none;fontFamily=Verdana;fontSize=12" parent="1" vertex="1">
          <mxGeometry x="220" y="160" width="170" height="120" as="geometry" />
        </mxCell>
        <mxCell id="TKWjIK_nqhg0Qx_Ndcxz-16" value="+ Type:" style="text;html=1;strokeColor=none;fillColor=none;align=left;verticalAlign=top;spacingLeft=4;spacingRight=4;whiteSpace=wrap;overflow=hidden;rotatable=0;points=[[0,0.5],[1,0.5]];portConstraint=eastwest;" parent="TKWjIK_nqhg0Qx_Ndcxz-15" vertex="1">
          <mxGeometry y="26" width="170" height="24" as="geometry" />
        </mxCell>
        <mxCell id="TKWjIK_nqhg0Qx_Ndcxz-17" value="+ Params:" style="text;html=1;strokeColor=none;fillColor=none;align=left;verticalAlign=top;spacingLeft=4;spacingRight=4;whiteSpace=wrap;overflow=hidden;rotatable=0;points=[[0,0.5],[1,0.5]];portConstraint=eastwest;" parent="TKWjIK_nqhg0Qx_Ndcxz-15" vertex="1">
          <mxGeometry y="50" width="170" height="20" as="geometry" />
        </mxCell>
        <mxCell id="TKWjIK_nqhg0Qx_Ndcxz-18" value="" style="line;html=1;strokeWidth=1;fillColor=none;align=left;verticalAlign=middle;spacingTop=-1;spacingLeft=3;spacingRight=3;rotatable=0;labelPosition=right;points=[];portConstraint=eastwest;" parent="TKWjIK_nqhg0Qx_Ndcxz-15" vertex="1">
          <mxGeometry y="70" width="170" height="8" as="geometry" />
        </mxCell>
        <mxCell id="TKWjIK_nqhg0Qx_Ndcxz-19" value="+ detect():" style="text;html=1;strokeColor=none;fillColor=none;align=left;verticalAlign=top;spacingLeft=4;spacingRight=4;whiteSpace=wrap;overflow=hidden;rotatable=0;points=[[0,0.5],[1,0.5]];portConstraint=eastwest;" parent="TKWjIK_nqhg0Qx_Ndcxz-15" vertex="1">
          <mxGeometry y="78" width="170" height="26" as="geometry" />
        </mxCell>
        <mxCell id="TKWjIK_nqhg0Qx_Ndcxz-23" value="&lt;font style=&quot;font-size: 16px;&quot;&gt;Camera Odometry&lt;/font&gt;" style="rounded=0;whiteSpace=wrap;html=1;" parent="1" vertex="1">
          <mxGeometry x="-830" y="693" width="120" height="60" as="geometry" />
        </mxCell>
        <mxCell id="TKWjIK_nqhg0Qx_Ndcxz-24" value="&lt;font style=&quot;font-size: 16px;&quot;&gt;Lidar&lt;br&gt;&amp;nbsp;Odometry&lt;/font&gt;" style="rounded=0;whiteSpace=wrap;html=1;" parent="1" vertex="1">
          <mxGeometry x="-680" y="693" width="120" height="60" as="geometry" />
        </mxCell>
        <mxCell id="TKWjIK_nqhg0Qx_Ndcxz-25" value="&lt;font style=&quot;font-size: 16px;&quot;&gt;Wheel Odometry&lt;/font&gt;" style="rounded=0;whiteSpace=wrap;html=1;" parent="1" vertex="1">
          <mxGeometry x="-532" y="693" width="120" height="60" as="geometry" />
        </mxCell>
        <mxCell id="TKWjIK_nqhg0Qx_Ndcxz-26" value="&lt;font style=&quot;font-size: 16px;&quot;&gt;GNSS&lt;/font&gt;" style="rounded=0;whiteSpace=wrap;html=1;" parent="1" vertex="1">
          <mxGeometry x="-680" y="784" width="120" height="60" as="geometry" />
        </mxCell>
        <mxCell id="TKWjIK_nqhg0Qx_Ndcxz-27" value="&lt;font style=&quot;font-size: 16px;&quot;&gt;IMU &lt;br&gt;Odometry&lt;br&gt;&lt;/font&gt;" style="rounded=0;whiteSpace=wrap;html=1;" parent="1" vertex="1">
          <mxGeometry x="-382" y="693" width="120" height="60" as="geometry" />
        </mxCell>
        <mxCell id="TKWjIK_nqhg0Qx_Ndcxz-34" value="&lt;font style=&quot;font-size: 16px;&quot;&gt;Radar&lt;br&gt;&lt;/font&gt;" style="rounded=0;whiteSpace=wrap;html=1;" parent="1" vertex="1">
          <mxGeometry x="-532" y="784" width="120" height="60" as="geometry" />
        </mxCell>
        <mxCell id="TKWjIK_nqhg0Qx_Ndcxz-35" value="&lt;font style=&quot;font-size: 16px;&quot;&gt;Landmark&amp;nbsp;&lt;br&gt;measurement&lt;br&gt;&lt;/font&gt;" style="rounded=0;whiteSpace=wrap;html=1;" parent="1" vertex="1">
          <mxGeometry x="-830" y="784" width="120" height="60" as="geometry" />
        </mxCell>
        <mxCell id="TKWjIK_nqhg0Qx_Ndcxz-36" value="&lt;font style=&quot;font-size: 16px;&quot;&gt;&lt;br&gt;&lt;/font&gt;" style="rounded=0;whiteSpace=wrap;html=1;" parent="1" vertex="1">
          <mxGeometry x="-382" y="784" width="120" height="60" as="geometry" />
        </mxCell>
        <mxCell id="TKWjIK_nqhg0Qx_Ndcxz-39" style="edgeStyle=orthogonalEdgeStyle;rounded=0;orthogonalLoop=1;jettySize=auto;html=1;entryX=0;entryY=0;entryDx=0;entryDy=15;entryPerimeter=0;" parent="1" source="TKWjIK_nqhg0Qx_Ndcxz-38" target="TKWjIK_nqhg0Qx_Ndcxz-37" edge="1">
          <mxGeometry relative="1" as="geometry" />
        </mxCell>
        <mxCell id="TKWjIK_nqhg0Qx_Ndcxz-38" value="&lt;font style=&quot;font-size: 16px;&quot;&gt;Data Chunk&lt;/font&gt;" style="rounded=1;whiteSpace=wrap;html=1;" parent="1" vertex="1">
          <mxGeometry x="-1021" y="590" width="78" height="47" as="geometry" />
        </mxCell>
        <mxCell id="TKWjIK_nqhg0Qx_Ndcxz-40" value="&lt;font style=&quot;font-size: 16px;&quot;&gt;Factors&lt;/font&gt;" style="rounded=1;whiteSpace=wrap;html=1;" parent="1" vertex="1">
          <mxGeometry x="-1021" y="669" width="83" height="41" as="geometry" />
        </mxCell>
        <mxCell id="FBjPzx07GxaDUaOyeUmr-44" style="edgeStyle=orthogonalEdgeStyle;rounded=0;orthogonalLoop=1;jettySize=auto;html=1;entryX=0.1;entryY=0.5;entryDx=0;entryDy=0;entryPerimeter=0;" parent="1" source="FBjPzx07GxaDUaOyeUmr-1" target="FBjPzx07GxaDUaOyeUmr-42" edge="1">
          <mxGeometry relative="1" as="geometry" />
        </mxCell>
        <mxCell id="FBjPzx07GxaDUaOyeUmr-1" value="abstract Sensor" style="swimlane;html=1;fontStyle=1;align=center;verticalAlign=top;childLayout=stackLayout;horizontal=1;startSize=26;horizontalStack=0;resizeParent=1;resizeLast=0;collapsible=1;marginBottom=0;swimlaneFillColor=#ffffff;rounded=0;shadow=0;comic=0;labelBackgroundColor=none;strokeWidth=1;fillColor=none;fontFamily=Verdana;fontSize=12" parent="1" vertex="1">
          <mxGeometry x="421.95000000000005" y="1150.81" width="170" height="124" as="geometry" />
        </mxCell>
        <mxCell id="FBjPzx07GxaDUaOyeUmr-2" value="+ type: Type" style="text;html=1;strokeColor=none;fillColor=none;align=left;verticalAlign=top;spacingLeft=4;spacingRight=4;whiteSpace=wrap;overflow=hidden;rotatable=0;points=[[0,0.5],[1,0.5]];portConstraint=eastwest;" parent="FBjPzx07GxaDUaOyeUmr-1" vertex="1">
          <mxGeometry y="26" width="170" height="24" as="geometry" />
        </mxCell>
        <mxCell id="FBjPzx07GxaDUaOyeUmr-3" value="+ name: str" style="text;html=1;strokeColor=none;fillColor=none;align=left;verticalAlign=top;spacingLeft=4;spacingRight=4;whiteSpace=wrap;overflow=hidden;rotatable=0;points=[[0,0.5],[1,0.5]];portConstraint=eastwest;" parent="FBjPzx07GxaDUaOyeUmr-1" vertex="1">
          <mxGeometry y="50" width="170" height="20" as="geometry" />
        </mxCell>
        <mxCell id="FBjPzx07GxaDUaOyeUmr-6" value="+ params: dict" style="text;html=1;strokeColor=none;fillColor=none;align=left;verticalAlign=top;spacingLeft=4;spacingRight=4;whiteSpace=wrap;overflow=hidden;rotatable=0;points=[[0,0.5],[1,0.5]];portConstraint=eastwest;" parent="FBjPzx07GxaDUaOyeUmr-1" vertex="1">
          <mxGeometry y="70" width="170" height="20" as="geometry" />
        </mxCell>
        <mxCell id="FBjPzx07GxaDUaOyeUmr-4" value="" style="line;html=1;strokeWidth=1;fillColor=none;align=left;verticalAlign=middle;spacingTop=-1;spacingLeft=3;spacingRight=3;rotatable=0;labelPosition=right;points=[];portConstraint=eastwest;" parent="FBjPzx07GxaDUaOyeUmr-1" vertex="1">
          <mxGeometry y="90" width="170" height="8" as="geometry" />
        </mxCell>
        <mxCell id="FBjPzx07GxaDUaOyeUmr-68" style="edgeStyle=orthogonalEdgeStyle;rounded=0;orthogonalLoop=1;jettySize=auto;html=1;entryX=0.1;entryY=0.5;entryDx=0;entryDy=0;entryPerimeter=0;" parent="1" source="FBjPzx07GxaDUaOyeUmr-7" target="FBjPzx07GxaDUaOyeUmr-65" edge="1">
          <mxGeometry relative="1" as="geometry" />
        </mxCell>
        <mxCell id="FBjPzx07GxaDUaOyeUmr-7" value="Camera(Sensor)" style="swimlane;html=1;fontStyle=1;align=center;verticalAlign=top;childLayout=stackLayout;horizontal=1;startSize=26;horizontalStack=0;resizeParent=1;resizeLast=0;collapsible=1;marginBottom=0;swimlaneFillColor=#ffffff;rounded=0;shadow=0;comic=0;labelBackgroundColor=none;strokeWidth=1;fillColor=none;fontFamily=Verdana;fontSize=12" parent="1" vertex="1">
          <mxGeometry x="73" y="1346.81" width="117" height="114" as="geometry" />
        </mxCell>
        <mxCell id="FBjPzx07GxaDUaOyeUmr-8" value="+ type: str" style="text;html=1;strokeColor=none;fillColor=none;align=left;verticalAlign=top;spacingLeft=4;spacingRight=4;whiteSpace=wrap;overflow=hidden;rotatable=0;points=[[0,0.5],[1,0.5]];portConstraint=eastwest;" parent="FBjPzx07GxaDUaOyeUmr-7" vertex="1">
          <mxGeometry y="26" width="117" height="24" as="geometry" />
        </mxCell>
        <mxCell id="FBjPzx07GxaDUaOyeUmr-9" value="+ name: str" style="text;html=1;strokeColor=none;fillColor=none;align=left;verticalAlign=top;spacingLeft=4;spacingRight=4;whiteSpace=wrap;overflow=hidden;rotatable=0;points=[[0,0.5],[1,0.5]];portConstraint=eastwest;" parent="FBjPzx07GxaDUaOyeUmr-7" vertex="1">
          <mxGeometry y="50" width="117" height="20" as="geometry" />
        </mxCell>
        <mxCell id="FBjPzx07GxaDUaOyeUmr-10" value="+ params: dict" style="text;html=1;strokeColor=none;fillColor=none;align=left;verticalAlign=top;spacingLeft=4;spacingRight=4;whiteSpace=wrap;overflow=hidden;rotatable=0;points=[[0,0.5],[1,0.5]];portConstraint=eastwest;" parent="FBjPzx07GxaDUaOyeUmr-7" vertex="1">
          <mxGeometry y="70" width="117" height="20" as="geometry" />
        </mxCell>
        <mxCell id="FBjPzx07GxaDUaOyeUmr-11" value="" style="line;html=1;strokeWidth=1;fillColor=none;align=left;verticalAlign=middle;spacingTop=-1;spacingLeft=3;spacingRight=3;rotatable=0;labelPosition=right;points=[];portConstraint=eastwest;" parent="FBjPzx07GxaDUaOyeUmr-7" vertex="1">
          <mxGeometry y="90" width="117" height="8" as="geometry" />
        </mxCell>
        <mxCell id="FBjPzx07GxaDUaOyeUmr-22" value="Lidar(Sensor)" style="swimlane;html=1;fontStyle=1;align=center;verticalAlign=top;childLayout=stackLayout;horizontal=1;startSize=26;horizontalStack=0;resizeParent=1;resizeLast=0;collapsible=1;marginBottom=0;swimlaneFillColor=#ffffff;rounded=0;shadow=0;comic=0;labelBackgroundColor=none;strokeWidth=1;fillColor=none;fontFamily=Verdana;fontSize=12" parent="1" vertex="1">
          <mxGeometry x="219" y="1346.81" width="117" height="114" as="geometry" />
        </mxCell>
        <mxCell id="FBjPzx07GxaDUaOyeUmr-23" value="+ type: str" style="text;html=1;strokeColor=none;fillColor=none;align=left;verticalAlign=top;spacingLeft=4;spacingRight=4;whiteSpace=wrap;overflow=hidden;rotatable=0;points=[[0,0.5],[1,0.5]];portConstraint=eastwest;" parent="FBjPzx07GxaDUaOyeUmr-22" vertex="1">
          <mxGeometry y="26" width="117" height="24" as="geometry" />
        </mxCell>
        <mxCell id="FBjPzx07GxaDUaOyeUmr-24" value="+ name: str" style="text;html=1;strokeColor=none;fillColor=none;align=left;verticalAlign=top;spacingLeft=4;spacingRight=4;whiteSpace=wrap;overflow=hidden;rotatable=0;points=[[0,0.5],[1,0.5]];portConstraint=eastwest;" parent="FBjPzx07GxaDUaOyeUmr-22" vertex="1">
          <mxGeometry y="50" width="117" height="20" as="geometry" />
        </mxCell>
        <mxCell id="FBjPzx07GxaDUaOyeUmr-25" value="+ params: dict" style="text;html=1;strokeColor=none;fillColor=none;align=left;verticalAlign=top;spacingLeft=4;spacingRight=4;whiteSpace=wrap;overflow=hidden;rotatable=0;points=[[0,0.5],[1,0.5]];portConstraint=eastwest;" parent="FBjPzx07GxaDUaOyeUmr-22" vertex="1">
          <mxGeometry y="70" width="117" height="20" as="geometry" />
        </mxCell>
        <mxCell id="FBjPzx07GxaDUaOyeUmr-26" value="" style="line;html=1;strokeWidth=1;fillColor=none;align=left;verticalAlign=middle;spacingTop=-1;spacingLeft=3;spacingRight=3;rotatable=0;labelPosition=right;points=[];portConstraint=eastwest;" parent="FBjPzx07GxaDUaOyeUmr-22" vertex="1">
          <mxGeometry y="90" width="117" height="8" as="geometry" />
        </mxCell>
        <mxCell id="FBjPzx07GxaDUaOyeUmr-27" value="Imu(Sensor)" style="swimlane;html=1;fontStyle=1;align=center;verticalAlign=top;childLayout=stackLayout;horizontal=1;startSize=26;horizontalStack=0;resizeParent=1;resizeLast=0;collapsible=1;marginBottom=0;swimlaneFillColor=#ffffff;rounded=0;shadow=0;comic=0;labelBackgroundColor=none;strokeWidth=1;fillColor=none;fontFamily=Verdana;fontSize=12" parent="1" vertex="1">
          <mxGeometry x="367" y="1346.81" width="117" height="114" as="geometry" />
        </mxCell>
        <mxCell id="FBjPzx07GxaDUaOyeUmr-28" value="+ type: str" style="text;html=1;strokeColor=none;fillColor=none;align=left;verticalAlign=top;spacingLeft=4;spacingRight=4;whiteSpace=wrap;overflow=hidden;rotatable=0;points=[[0,0.5],[1,0.5]];portConstraint=eastwest;" parent="FBjPzx07GxaDUaOyeUmr-27" vertex="1">
          <mxGeometry y="26" width="117" height="24" as="geometry" />
        </mxCell>
        <mxCell id="FBjPzx07GxaDUaOyeUmr-29" value="+ name: str" style="text;html=1;strokeColor=none;fillColor=none;align=left;verticalAlign=top;spacingLeft=4;spacingRight=4;whiteSpace=wrap;overflow=hidden;rotatable=0;points=[[0,0.5],[1,0.5]];portConstraint=eastwest;" parent="FBjPzx07GxaDUaOyeUmr-27" vertex="1">
          <mxGeometry y="50" width="117" height="20" as="geometry" />
        </mxCell>
        <mxCell id="FBjPzx07GxaDUaOyeUmr-30" value="+ params: dict" style="text;html=1;strokeColor=none;fillColor=none;align=left;verticalAlign=top;spacingLeft=4;spacingRight=4;whiteSpace=wrap;overflow=hidden;rotatable=0;points=[[0,0.5],[1,0.5]];portConstraint=eastwest;" parent="FBjPzx07GxaDUaOyeUmr-27" vertex="1">
          <mxGeometry y="70" width="117" height="20" as="geometry" />
        </mxCell>
        <mxCell id="FBjPzx07GxaDUaOyeUmr-31" value="" style="line;html=1;strokeWidth=1;fillColor=none;align=left;verticalAlign=middle;spacingTop=-1;spacingLeft=3;spacingRight=3;rotatable=0;labelPosition=right;points=[];portConstraint=eastwest;" parent="FBjPzx07GxaDUaOyeUmr-27" vertex="1">
          <mxGeometry y="90" width="117" height="8" as="geometry" />
        </mxCell>
        <mxCell id="FBjPzx07GxaDUaOyeUmr-32" value="GNSS(Sensor)" style="swimlane;html=1;fontStyle=1;align=center;verticalAlign=top;childLayout=stackLayout;horizontal=1;startSize=26;horizontalStack=0;resizeParent=1;resizeLast=0;collapsible=1;marginBottom=0;swimlaneFillColor=#ffffff;rounded=0;shadow=0;comic=0;labelBackgroundColor=none;strokeWidth=1;fillColor=none;fontFamily=Verdana;fontSize=12" parent="1" vertex="1">
          <mxGeometry x="519" y="1346.81" width="117" height="114" as="geometry" />
        </mxCell>
        <mxCell id="FBjPzx07GxaDUaOyeUmr-33" value="+ type: str" style="text;html=1;strokeColor=none;fillColor=none;align=left;verticalAlign=top;spacingLeft=4;spacingRight=4;whiteSpace=wrap;overflow=hidden;rotatable=0;points=[[0,0.5],[1,0.5]];portConstraint=eastwest;" parent="FBjPzx07GxaDUaOyeUmr-32" vertex="1">
          <mxGeometry y="26" width="117" height="24" as="geometry" />
        </mxCell>
        <mxCell id="FBjPzx07GxaDUaOyeUmr-34" value="+ name: str" style="text;html=1;strokeColor=none;fillColor=none;align=left;verticalAlign=top;spacingLeft=4;spacingRight=4;whiteSpace=wrap;overflow=hidden;rotatable=0;points=[[0,0.5],[1,0.5]];portConstraint=eastwest;" parent="FBjPzx07GxaDUaOyeUmr-32" vertex="1">
          <mxGeometry y="50" width="117" height="20" as="geometry" />
        </mxCell>
        <mxCell id="FBjPzx07GxaDUaOyeUmr-35" value="+ params: dict" style="text;html=1;strokeColor=none;fillColor=none;align=left;verticalAlign=top;spacingLeft=4;spacingRight=4;whiteSpace=wrap;overflow=hidden;rotatable=0;points=[[0,0.5],[1,0.5]];portConstraint=eastwest;" parent="FBjPzx07GxaDUaOyeUmr-32" vertex="1">
          <mxGeometry y="70" width="117" height="20" as="geometry" />
        </mxCell>
        <mxCell id="FBjPzx07GxaDUaOyeUmr-36" value="" style="line;html=1;strokeWidth=1;fillColor=none;align=left;verticalAlign=middle;spacingTop=-1;spacingLeft=3;spacingRight=3;rotatable=0;labelPosition=right;points=[];portConstraint=eastwest;" parent="FBjPzx07GxaDUaOyeUmr-32" vertex="1">
          <mxGeometry y="90" width="117" height="8" as="geometry" />
        </mxCell>
        <mxCell id="FBjPzx07GxaDUaOyeUmr-83" style="edgeStyle=orthogonalEdgeStyle;rounded=0;orthogonalLoop=1;jettySize=auto;html=1;entryX=0.1;entryY=0.5;entryDx=0;entryDy=0;entryPerimeter=0;" parent="1" source="FBjPzx07GxaDUaOyeUmr-37" target="FBjPzx07GxaDUaOyeUmr-80" edge="1">
          <mxGeometry relative="1" as="geometry" />
        </mxCell>
        <mxCell id="FBjPzx07GxaDUaOyeUmr-37" value="Encoder(Sensor)" style="swimlane;html=1;fontStyle=1;align=center;verticalAlign=top;childLayout=stackLayout;horizontal=1;startSize=26;horizontalStack=0;resizeParent=1;resizeLast=0;collapsible=1;marginBottom=0;swimlaneFillColor=#ffffff;rounded=0;shadow=0;comic=0;labelBackgroundColor=none;strokeWidth=1;fillColor=none;fontFamily=Verdana;fontSize=12" parent="1" vertex="1">
          <mxGeometry x="674" y="1346.81" width="117" height="114" as="geometry" />
        </mxCell>
        <mxCell id="FBjPzx07GxaDUaOyeUmr-38" value="+ type: str" style="text;html=1;strokeColor=none;fillColor=none;align=left;verticalAlign=top;spacingLeft=4;spacingRight=4;whiteSpace=wrap;overflow=hidden;rotatable=0;points=[[0,0.5],[1,0.5]];portConstraint=eastwest;" parent="FBjPzx07GxaDUaOyeUmr-37" vertex="1">
          <mxGeometry y="26" width="117" height="24" as="geometry" />
        </mxCell>
        <mxCell id="FBjPzx07GxaDUaOyeUmr-39" value="+ name: str" style="text;html=1;strokeColor=none;fillColor=none;align=left;verticalAlign=top;spacingLeft=4;spacingRight=4;whiteSpace=wrap;overflow=hidden;rotatable=0;points=[[0,0.5],[1,0.5]];portConstraint=eastwest;" parent="FBjPzx07GxaDUaOyeUmr-37" vertex="1">
          <mxGeometry y="50" width="117" height="20" as="geometry" />
        </mxCell>
        <mxCell id="FBjPzx07GxaDUaOyeUmr-40" value="+ params: dict" style="text;html=1;strokeColor=none;fillColor=none;align=left;verticalAlign=top;spacingLeft=4;spacingRight=4;whiteSpace=wrap;overflow=hidden;rotatable=0;points=[[0,0.5],[1,0.5]];portConstraint=eastwest;" parent="FBjPzx07GxaDUaOyeUmr-37" vertex="1">
          <mxGeometry y="70" width="117" height="20" as="geometry" />
        </mxCell>
        <mxCell id="FBjPzx07GxaDUaOyeUmr-41" value="" style="line;html=1;strokeWidth=1;fillColor=none;align=left;verticalAlign=middle;spacingTop=-1;spacingLeft=3;spacingRight=3;rotatable=0;labelPosition=right;points=[];portConstraint=eastwest;" parent="FBjPzx07GxaDUaOyeUmr-37" vertex="1">
          <mxGeometry y="90" width="117" height="8" as="geometry" />
        </mxCell>
        <mxCell id="FBjPzx07GxaDUaOyeUmr-42" value="" style="shape=curlyBracket;whiteSpace=wrap;html=1;rounded=1;labelPosition=left;verticalLabelPosition=middle;align=right;verticalAlign=middle;rotation=90;" parent="1" vertex="1">
          <mxGeometry x="489.57" y="876" width="34.75" height="886.88" as="geometry" />
        </mxCell>
        <mxCell id="FBjPzx07GxaDUaOyeUmr-46" value="_______(Sensor)" style="swimlane;html=1;fontStyle=1;align=center;verticalAlign=top;childLayout=stackLayout;horizontal=1;startSize=26;horizontalStack=0;resizeParent=1;resizeLast=0;collapsible=1;marginBottom=0;swimlaneFillColor=#ffffff;rounded=0;shadow=0;comic=0;labelBackgroundColor=none;strokeWidth=1;fillColor=none;fontFamily=Verdana;fontSize=12" parent="1" vertex="1">
          <mxGeometry x="829" y="1346.81" width="117" height="114" as="geometry" />
        </mxCell>
        <mxCell id="FBjPzx07GxaDUaOyeUmr-47" value="+ type: str" style="text;html=1;strokeColor=none;fillColor=none;align=left;verticalAlign=top;spacingLeft=4;spacingRight=4;whiteSpace=wrap;overflow=hidden;rotatable=0;points=[[0,0.5],[1,0.5]];portConstraint=eastwest;" parent="FBjPzx07GxaDUaOyeUmr-46" vertex="1">
          <mxGeometry y="26" width="117" height="24" as="geometry" />
        </mxCell>
        <mxCell id="FBjPzx07GxaDUaOyeUmr-48" value="+ name: str" style="text;html=1;strokeColor=none;fillColor=none;align=left;verticalAlign=top;spacingLeft=4;spacingRight=4;whiteSpace=wrap;overflow=hidden;rotatable=0;points=[[0,0.5],[1,0.5]];portConstraint=eastwest;" parent="FBjPzx07GxaDUaOyeUmr-46" vertex="1">
          <mxGeometry y="50" width="117" height="20" as="geometry" />
        </mxCell>
        <mxCell id="FBjPzx07GxaDUaOyeUmr-49" value="+ params: dict" style="text;html=1;strokeColor=none;fillColor=none;align=left;verticalAlign=top;spacingLeft=4;spacingRight=4;whiteSpace=wrap;overflow=hidden;rotatable=0;points=[[0,0.5],[1,0.5]];portConstraint=eastwest;" parent="FBjPzx07GxaDUaOyeUmr-46" vertex="1">
          <mxGeometry y="70" width="117" height="20" as="geometry" />
        </mxCell>
        <mxCell id="FBjPzx07GxaDUaOyeUmr-50" value="" style="line;html=1;strokeWidth=1;fillColor=none;align=left;verticalAlign=middle;spacingTop=-1;spacingLeft=3;spacingRight=3;rotatable=0;labelPosition=right;points=[];portConstraint=eastwest;" parent="FBjPzx07GxaDUaOyeUmr-46" vertex="1">
          <mxGeometry y="90" width="117" height="8" as="geometry" />
        </mxCell>
        <mxCell id="FBjPzx07GxaDUaOyeUmr-51" value="RGB_camera(Camera)" style="swimlane;html=1;fontStyle=1;align=center;verticalAlign=top;childLayout=stackLayout;horizontal=1;startSize=26;horizontalStack=0;resizeParent=1;resizeLast=0;collapsible=1;marginBottom=0;swimlaneFillColor=#ffffff;rounded=0;shadow=0;comic=0;labelBackgroundColor=none;strokeWidth=1;fillColor=none;fontFamily=Verdana;fontSize=12" parent="1" vertex="1">
          <mxGeometry x="-2" y="1533.81" width="123.5" height="83" as="geometry" />
        </mxCell>
        <mxCell id="FBjPzx07GxaDUaOyeUmr-53" value="+ name: str" style="text;html=1;strokeColor=none;fillColor=none;align=left;verticalAlign=top;spacingLeft=4;spacingRight=4;whiteSpace=wrap;overflow=hidden;rotatable=0;points=[[0,0.5],[1,0.5]];portConstraint=eastwest;" parent="FBjPzx07GxaDUaOyeUmr-51" vertex="1">
          <mxGeometry y="26" width="123.5" height="20" as="geometry" />
        </mxCell>
        <mxCell id="FBjPzx07GxaDUaOyeUmr-54" value="+ params: dict" style="text;html=1;strokeColor=none;fillColor=none;align=left;verticalAlign=top;spacingLeft=4;spacingRight=4;whiteSpace=wrap;overflow=hidden;rotatable=0;points=[[0,0.5],[1,0.5]];portConstraint=eastwest;" parent="FBjPzx07GxaDUaOyeUmr-51" vertex="1">
          <mxGeometry y="46" width="123.5" height="20" as="geometry" />
        </mxCell>
        <mxCell id="FBjPzx07GxaDUaOyeUmr-55" value="" style="line;html=1;strokeWidth=1;fillColor=none;align=left;verticalAlign=middle;spacingTop=-1;spacingLeft=3;spacingRight=3;rotatable=0;labelPosition=right;points=[];portConstraint=eastwest;" parent="FBjPzx07GxaDUaOyeUmr-51" vertex="1">
          <mxGeometry y="66" width="123.5" height="8" as="geometry" />
        </mxCell>
        <mxCell id="FBjPzx07GxaDUaOyeUmr-61" value="Depth_camera(Camera)" style="swimlane;html=1;fontStyle=1;align=center;verticalAlign=top;childLayout=stackLayout;horizontal=1;startSize=26;horizontalStack=0;resizeParent=1;resizeLast=0;collapsible=1;marginBottom=0;swimlaneFillColor=#ffffff;rounded=0;shadow=0;comic=0;labelBackgroundColor=none;strokeWidth=1;fillColor=none;fontFamily=Verdana;fontSize=12" parent="1" vertex="1">
          <mxGeometry x="141.5" y="1533.81" width="125.5" height="83" as="geometry" />
        </mxCell>
        <mxCell id="FBjPzx07GxaDUaOyeUmr-62" value="+ name: str" style="text;html=1;strokeColor=none;fillColor=none;align=left;verticalAlign=top;spacingLeft=4;spacingRight=4;whiteSpace=wrap;overflow=hidden;rotatable=0;points=[[0,0.5],[1,0.5]];portConstraint=eastwest;" parent="FBjPzx07GxaDUaOyeUmr-61" vertex="1">
          <mxGeometry y="26" width="125.5" height="20" as="geometry" />
        </mxCell>
        <mxCell id="FBjPzx07GxaDUaOyeUmr-63" value="+ params: dict" style="text;html=1;strokeColor=none;fillColor=none;align=left;verticalAlign=top;spacingLeft=4;spacingRight=4;whiteSpace=wrap;overflow=hidden;rotatable=0;points=[[0,0.5],[1,0.5]];portConstraint=eastwest;" parent="FBjPzx07GxaDUaOyeUmr-61" vertex="1">
          <mxGeometry y="46" width="125.5" height="20" as="geometry" />
        </mxCell>
        <mxCell id="FBjPzx07GxaDUaOyeUmr-64" value="" style="line;html=1;strokeWidth=1;fillColor=none;align=left;verticalAlign=middle;spacingTop=-1;spacingLeft=3;spacingRight=3;rotatable=0;labelPosition=right;points=[];portConstraint=eastwest;" parent="FBjPzx07GxaDUaOyeUmr-61" vertex="1">
          <mxGeometry y="66" width="125.5" height="8" as="geometry" />
        </mxCell>
        <mxCell id="FBjPzx07GxaDUaOyeUmr-65" value="" style="shape=curlyBracket;whiteSpace=wrap;html=1;rounded=1;labelPosition=left;verticalLabelPosition=middle;align=right;verticalAlign=middle;rotation=90;" parent="1" vertex="1">
          <mxGeometry x="118.94000000000005" y="1367.49" width="24.5" height="282.13" as="geometry" />
        </mxCell>
        <mxCell id="FBjPzx07GxaDUaOyeUmr-70" value="Rear_Encoder(Encoder)" style="swimlane;html=1;fontStyle=1;align=center;verticalAlign=top;childLayout=stackLayout;horizontal=1;startSize=26;horizontalStack=0;resizeParent=1;resizeLast=0;collapsible=1;marginBottom=0;swimlaneFillColor=#ffffff;rounded=0;shadow=0;comic=0;labelBackgroundColor=none;strokeWidth=1;fillColor=none;fontFamily=Verdana;fontSize=12" parent="1" vertex="1">
          <mxGeometry x="588" y="1530.31" width="138" height="114" as="geometry" />
        </mxCell>
        <mxCell id="FBjPzx07GxaDUaOyeUmr-71" value="+ type: str" style="text;html=1;strokeColor=none;fillColor=none;align=left;verticalAlign=top;spacingLeft=4;spacingRight=4;whiteSpace=wrap;overflow=hidden;rotatable=0;points=[[0,0.5],[1,0.5]];portConstraint=eastwest;" parent="FBjPzx07GxaDUaOyeUmr-70" vertex="1">
          <mxGeometry y="26" width="138" height="24" as="geometry" />
        </mxCell>
        <mxCell id="FBjPzx07GxaDUaOyeUmr-72" value="+ name: str" style="text;html=1;strokeColor=none;fillColor=none;align=left;verticalAlign=top;spacingLeft=4;spacingRight=4;whiteSpace=wrap;overflow=hidden;rotatable=0;points=[[0,0.5],[1,0.5]];portConstraint=eastwest;" parent="FBjPzx07GxaDUaOyeUmr-70" vertex="1">
          <mxGeometry y="50" width="138" height="20" as="geometry" />
        </mxCell>
        <mxCell id="FBjPzx07GxaDUaOyeUmr-73" value="+ params: dict" style="text;html=1;strokeColor=none;fillColor=none;align=left;verticalAlign=top;spacingLeft=4;spacingRight=4;whiteSpace=wrap;overflow=hidden;rotatable=0;points=[[0,0.5],[1,0.5]];portConstraint=eastwest;" parent="FBjPzx07GxaDUaOyeUmr-70" vertex="1">
          <mxGeometry y="70" width="138" height="20" as="geometry" />
        </mxCell>
        <mxCell id="FBjPzx07GxaDUaOyeUmr-74" value="" style="line;html=1;strokeWidth=1;fillColor=none;align=left;verticalAlign=middle;spacingTop=-1;spacingLeft=3;spacingRight=3;rotatable=0;labelPosition=right;points=[];portConstraint=eastwest;" parent="FBjPzx07GxaDUaOyeUmr-70" vertex="1">
          <mxGeometry y="90" width="138" height="8" as="geometry" />
        </mxCell>
        <mxCell id="FBjPzx07GxaDUaOyeUmr-75" value="Front_Encoder(Encoder)" style="swimlane;html=1;fontStyle=1;align=center;verticalAlign=top;childLayout=stackLayout;horizontal=1;startSize=26;horizontalStack=0;resizeParent=1;resizeLast=0;collapsible=1;marginBottom=0;swimlaneFillColor=#ffffff;rounded=0;shadow=0;comic=0;labelBackgroundColor=none;strokeWidth=1;fillColor=none;fontFamily=Verdana;fontSize=12" parent="1" vertex="1">
          <mxGeometry x="744" y="1530.31" width="138" height="114" as="geometry" />
        </mxCell>
        <mxCell id="FBjPzx07GxaDUaOyeUmr-76" value="+ type: str" style="text;html=1;strokeColor=none;fillColor=none;align=left;verticalAlign=top;spacingLeft=4;spacingRight=4;whiteSpace=wrap;overflow=hidden;rotatable=0;points=[[0,0.5],[1,0.5]];portConstraint=eastwest;" parent="FBjPzx07GxaDUaOyeUmr-75" vertex="1">
          <mxGeometry y="26" width="138" height="24" as="geometry" />
        </mxCell>
        <mxCell id="FBjPzx07GxaDUaOyeUmr-77" value="+ name: str" style="text;html=1;strokeColor=none;fillColor=none;align=left;verticalAlign=top;spacingLeft=4;spacingRight=4;whiteSpace=wrap;overflow=hidden;rotatable=0;points=[[0,0.5],[1,0.5]];portConstraint=eastwest;" parent="FBjPzx07GxaDUaOyeUmr-75" vertex="1">
          <mxGeometry y="50" width="138" height="20" as="geometry" />
        </mxCell>
        <mxCell id="FBjPzx07GxaDUaOyeUmr-78" value="+ params: dict" style="text;html=1;strokeColor=none;fillColor=none;align=left;verticalAlign=top;spacingLeft=4;spacingRight=4;whiteSpace=wrap;overflow=hidden;rotatable=0;points=[[0,0.5],[1,0.5]];portConstraint=eastwest;" parent="FBjPzx07GxaDUaOyeUmr-75" vertex="1">
          <mxGeometry y="70" width="138" height="20" as="geometry" />
        </mxCell>
        <mxCell id="FBjPzx07GxaDUaOyeUmr-79" value="" style="line;html=1;strokeWidth=1;fillColor=none;align=left;verticalAlign=middle;spacingTop=-1;spacingLeft=3;spacingRight=3;rotatable=0;labelPosition=right;points=[];portConstraint=eastwest;" parent="FBjPzx07GxaDUaOyeUmr-75" vertex="1">
          <mxGeometry y="90" width="138" height="8" as="geometry" />
        </mxCell>
        <mxCell id="FBjPzx07GxaDUaOyeUmr-80" value="" style="shape=curlyBracket;whiteSpace=wrap;html=1;rounded=1;labelPosition=left;verticalLabelPosition=middle;align=right;verticalAlign=middle;rotation=90;" parent="1" vertex="1">
          <mxGeometry x="713" y="1352.37" width="39" height="312.38" as="geometry" />
        </mxCell>
        <mxCell id="FBjPzx07GxaDUaOyeUmr-117" style="edgeStyle=orthogonalEdgeStyle;rounded=0;orthogonalLoop=1;jettySize=auto;html=1;entryX=0.1;entryY=0.5;entryDx=0;entryDy=0;entryPerimeter=0;" parent="1" source="FBjPzx07GxaDUaOyeUmr-86" target="FBjPzx07GxaDUaOyeUmr-116" edge="1">
          <mxGeometry relative="1" as="geometry" />
        </mxCell>
        <mxCell id="FBjPzx07GxaDUaOyeUmr-86" value="abstract MeasurementProcessor" style="swimlane;html=1;fontStyle=1;align=center;verticalAlign=top;childLayout=stackLayout;horizontal=1;startSize=26;horizontalStack=0;resizeParent=1;resizeLast=0;collapsible=1;marginBottom=0;swimlaneFillColor=#ffffff;rounded=0;shadow=0;comic=0;labelBackgroundColor=none;strokeWidth=1;fillColor=none;fontFamily=Verdana;fontSize=12" parent="1" vertex="1">
          <mxGeometry x="-572.5" y="938.0799999999999" width="223" height="150" as="geometry" />
        </mxCell>
        <mxCell id="FBjPzx07GxaDUaOyeUmr-88" value="+ name: str" style="text;html=1;strokeColor=none;fillColor=none;align=left;verticalAlign=top;spacingLeft=4;spacingRight=4;whiteSpace=wrap;overflow=hidden;rotatable=0;points=[[0,0.5],[1,0.5]];portConstraint=eastwest;" parent="FBjPzx07GxaDUaOyeUmr-86" vertex="1">
          <mxGeometry y="26" width="223" height="20" as="geometry" />
        </mxCell>
        <mxCell id="FBjPzx07GxaDUaOyeUmr-89" value="+ params: dict" style="text;html=1;strokeColor=none;fillColor=none;align=left;verticalAlign=top;spacingLeft=4;spacingRight=4;whiteSpace=wrap;overflow=hidden;rotatable=0;points=[[0,0.5],[1,0.5]];portConstraint=eastwest;" parent="FBjPzx07GxaDUaOyeUmr-86" vertex="1">
          <mxGeometry y="46" width="223" height="20" as="geometry" />
        </mxCell>
        <mxCell id="FBjPzx07GxaDUaOyeUmr-90" value="" style="line;html=1;strokeWidth=1;fillColor=none;align=left;verticalAlign=middle;spacingTop=-1;spacingLeft=3;spacingRight=3;rotatable=0;labelPosition=right;points=[];portConstraint=eastwest;" parent="FBjPzx07GxaDUaOyeUmr-86" vertex="1">
          <mxGeometry y="66" width="223" height="8" as="geometry" />
        </mxCell>
        <mxCell id="FBjPzx07GxaDUaOyeUmr-92" value="+ grab_data():" style="text;html=1;strokeColor=none;fillColor=none;align=left;verticalAlign=top;spacingLeft=4;spacingRight=4;whiteSpace=wrap;overflow=hidden;rotatable=0;points=[[0,0.5],[1,0.5]];portConstraint=eastwest;" parent="FBjPzx07GxaDUaOyeUmr-86" vertex="1">
          <mxGeometry y="74" width="223" height="26" as="geometry" />
        </mxCell>
        <mxCell id="FBjPzx07GxaDUaOyeUmr-91" value="+ grab_sensor():" style="text;html=1;strokeColor=none;fillColor=none;align=left;verticalAlign=top;spacingLeft=4;spacingRight=4;whiteSpace=wrap;overflow=hidden;rotatable=0;points=[[0,0.5],[1,0.5]];portConstraint=eastwest;" parent="FBjPzx07GxaDUaOyeUmr-86" vertex="1">
          <mxGeometry y="100" width="223" height="26" as="geometry" />
        </mxCell>
        <mxCell id="FBjPzx07GxaDUaOyeUmr-94" value="CameraOdometry(MeasurementProcessor)" style="swimlane;html=1;fontStyle=1;align=center;verticalAlign=top;childLayout=stackLayout;horizontal=1;startSize=26;horizontalStack=0;resizeParent=1;resizeLast=0;collapsible=1;marginBottom=0;swimlaneFillColor=#ffffff;rounded=0;shadow=0;comic=0;labelBackgroundColor=none;strokeWidth=1;fillColor=none;fontFamily=Verdana;fontSize=12" parent="1" vertex="1">
          <mxGeometry x="-847" y="1149.57" width="233" height="152" as="geometry" />
        </mxCell>
        <mxCell id="FBjPzx07GxaDUaOyeUmr-95" value="+ name: str" style="text;html=1;strokeColor=none;fillColor=none;align=left;verticalAlign=top;spacingLeft=4;spacingRight=4;whiteSpace=wrap;overflow=hidden;rotatable=0;points=[[0,0.5],[1,0.5]];portConstraint=eastwest;" parent="FBjPzx07GxaDUaOyeUmr-94" vertex="1">
          <mxGeometry y="26" width="233" height="20" as="geometry" />
        </mxCell>
        <mxCell id="FBjPzx07GxaDUaOyeUmr-96" value="+ params: dict" style="text;html=1;strokeColor=none;fillColor=none;align=left;verticalAlign=top;spacingLeft=4;spacingRight=4;whiteSpace=wrap;overflow=hidden;rotatable=0;points=[[0,0.5],[1,0.5]];portConstraint=eastwest;" parent="FBjPzx07GxaDUaOyeUmr-94" vertex="1">
          <mxGeometry y="46" width="233" height="20" as="geometry" />
        </mxCell>
        <mxCell id="FBjPzx07GxaDUaOyeUmr-97" value="" style="line;html=1;strokeWidth=1;fillColor=none;align=left;verticalAlign=middle;spacingTop=-1;spacingLeft=3;spacingRight=3;rotatable=0;labelPosition=right;points=[];portConstraint=eastwest;" parent="FBjPzx07GxaDUaOyeUmr-94" vertex="1">
          <mxGeometry y="66" width="233" height="8" as="geometry" />
        </mxCell>
        <mxCell id="FBjPzx07GxaDUaOyeUmr-98" value="+ grab_data():" style="text;html=1;strokeColor=none;fillColor=none;align=left;verticalAlign=top;spacingLeft=4;spacingRight=4;whiteSpace=wrap;overflow=hidden;rotatable=0;points=[[0,0.5],[1,0.5]];portConstraint=eastwest;" parent="FBjPzx07GxaDUaOyeUmr-94" vertex="1">
          <mxGeometry y="74" width="233" height="26" as="geometry" />
        </mxCell>
        <mxCell id="FBjPzx07GxaDUaOyeUmr-99" value="+ grab_sensor():" style="text;html=1;strokeColor=none;fillColor=none;align=left;verticalAlign=top;spacingLeft=4;spacingRight=4;whiteSpace=wrap;overflow=hidden;rotatable=0;points=[[0,0.5],[1,0.5]];portConstraint=eastwest;" parent="FBjPzx07GxaDUaOyeUmr-94" vertex="1">
          <mxGeometry y="100" width="233" height="26" as="geometry" />
        </mxCell>
        <mxCell id="FBjPzx07GxaDUaOyeUmr-106" value="+ get_relative_tf():" style="text;html=1;strokeColor=none;fillColor=none;align=left;verticalAlign=top;spacingLeft=4;spacingRight=4;whiteSpace=wrap;overflow=hidden;rotatable=0;points=[[0,0.5],[1,0.5]];portConstraint=eastwest;" parent="FBjPzx07GxaDUaOyeUmr-94" vertex="1">
          <mxGeometry y="126" width="233" height="26" as="geometry" />
        </mxCell>
        <mxCell id="FBjPzx07GxaDUaOyeUmr-100" value="LidarOdometry(MeasurementProcessor)" style="swimlane;html=1;fontStyle=1;align=center;verticalAlign=top;childLayout=stackLayout;horizontal=1;startSize=26;horizontalStack=0;resizeParent=1;resizeLast=0;collapsible=1;marginBottom=0;swimlaneFillColor=#ffffff;rounded=0;shadow=0;comic=0;labelBackgroundColor=none;strokeWidth=1;fillColor=none;fontFamily=Verdana;fontSize=12" parent="1" vertex="1">
          <mxGeometry x="-577" y="1151.57" width="232" height="152" as="geometry" />
        </mxCell>
        <mxCell id="FBjPzx07GxaDUaOyeUmr-101" value="+ name: str" style="text;html=1;strokeColor=none;fillColor=none;align=left;verticalAlign=top;spacingLeft=4;spacingRight=4;whiteSpace=wrap;overflow=hidden;rotatable=0;points=[[0,0.5],[1,0.5]];portConstraint=eastwest;" parent="FBjPzx07GxaDUaOyeUmr-100" vertex="1">
          <mxGeometry y="26" width="232" height="20" as="geometry" />
        </mxCell>
        <mxCell id="FBjPzx07GxaDUaOyeUmr-102" value="+ params: dict" style="text;html=1;strokeColor=none;fillColor=none;align=left;verticalAlign=top;spacingLeft=4;spacingRight=4;whiteSpace=wrap;overflow=hidden;rotatable=0;points=[[0,0.5],[1,0.5]];portConstraint=eastwest;" parent="FBjPzx07GxaDUaOyeUmr-100" vertex="1">
          <mxGeometry y="46" width="232" height="20" as="geometry" />
        </mxCell>
        <mxCell id="FBjPzx07GxaDUaOyeUmr-103" value="" style="line;html=1;strokeWidth=1;fillColor=none;align=left;verticalAlign=middle;spacingTop=-1;spacingLeft=3;spacingRight=3;rotatable=0;labelPosition=right;points=[];portConstraint=eastwest;" parent="FBjPzx07GxaDUaOyeUmr-100" vertex="1">
          <mxGeometry y="66" width="232" height="8" as="geometry" />
        </mxCell>
        <mxCell id="FBjPzx07GxaDUaOyeUmr-104" value="+ grab_data():" style="text;html=1;strokeColor=none;fillColor=none;align=left;verticalAlign=top;spacingLeft=4;spacingRight=4;whiteSpace=wrap;overflow=hidden;rotatable=0;points=[[0,0.5],[1,0.5]];portConstraint=eastwest;" parent="FBjPzx07GxaDUaOyeUmr-100" vertex="1">
          <mxGeometry y="74" width="232" height="26" as="geometry" />
        </mxCell>
        <mxCell id="FBjPzx07GxaDUaOyeUmr-105" value="+ grab_sensor():" style="text;html=1;strokeColor=none;fillColor=none;align=left;verticalAlign=top;spacingLeft=4;spacingRight=4;whiteSpace=wrap;overflow=hidden;rotatable=0;points=[[0,0.5],[1,0.5]];portConstraint=eastwest;" parent="FBjPzx07GxaDUaOyeUmr-100" vertex="1">
          <mxGeometry y="100" width="232" height="26" as="geometry" />
        </mxCell>
        <mxCell id="FBjPzx07GxaDUaOyeUmr-107" value="+ get_relative_tf():" style="text;html=1;strokeColor=none;fillColor=none;align=left;verticalAlign=top;spacingLeft=4;spacingRight=4;whiteSpace=wrap;overflow=hidden;rotatable=0;points=[[0,0.5],[1,0.5]];portConstraint=eastwest;" parent="FBjPzx07GxaDUaOyeUmr-100" vertex="1">
          <mxGeometry y="126" width="232" height="26" as="geometry" />
        </mxCell>
        <mxCell id="FBjPzx07GxaDUaOyeUmr-108" value="ImuOdometry(MeasurementProcessor)" style="swimlane;html=1;fontStyle=1;align=center;verticalAlign=top;childLayout=stackLayout;horizontal=1;startSize=26;horizontalStack=0;resizeParent=1;resizeLast=0;collapsible=1;marginBottom=0;swimlaneFillColor=#ffffff;rounded=0;shadow=0;comic=0;labelBackgroundColor=none;strokeWidth=1;fillColor=none;fontFamily=Verdana;fontSize=12" parent="1" vertex="1">
          <mxGeometry x="-297" y="1149.57" width="223" height="152" as="geometry" />
        </mxCell>
        <mxCell id="FBjPzx07GxaDUaOyeUmr-109" value="+ name: str" style="text;html=1;strokeColor=none;fillColor=none;align=left;verticalAlign=top;spacingLeft=4;spacingRight=4;whiteSpace=wrap;overflow=hidden;rotatable=0;points=[[0,0.5],[1,0.5]];portConstraint=eastwest;" parent="FBjPzx07GxaDUaOyeUmr-108" vertex="1">
          <mxGeometry y="26" width="223" height="20" as="geometry" />
        </mxCell>
        <mxCell id="FBjPzx07GxaDUaOyeUmr-110" value="+ params: dict" style="text;html=1;strokeColor=none;fillColor=none;align=left;verticalAlign=top;spacingLeft=4;spacingRight=4;whiteSpace=wrap;overflow=hidden;rotatable=0;points=[[0,0.5],[1,0.5]];portConstraint=eastwest;" parent="FBjPzx07GxaDUaOyeUmr-108" vertex="1">
          <mxGeometry y="46" width="223" height="20" as="geometry" />
        </mxCell>
        <mxCell id="FBjPzx07GxaDUaOyeUmr-111" value="" style="line;html=1;strokeWidth=1;fillColor=none;align=left;verticalAlign=middle;spacingTop=-1;spacingLeft=3;spacingRight=3;rotatable=0;labelPosition=right;points=[];portConstraint=eastwest;" parent="FBjPzx07GxaDUaOyeUmr-108" vertex="1">
          <mxGeometry y="66" width="223" height="8" as="geometry" />
        </mxCell>
        <mxCell id="FBjPzx07GxaDUaOyeUmr-112" value="+ grab_data():" style="text;html=1;strokeColor=none;fillColor=none;align=left;verticalAlign=top;spacingLeft=4;spacingRight=4;whiteSpace=wrap;overflow=hidden;rotatable=0;points=[[0,0.5],[1,0.5]];portConstraint=eastwest;" parent="FBjPzx07GxaDUaOyeUmr-108" vertex="1">
          <mxGeometry y="74" width="223" height="26" as="geometry" />
        </mxCell>
        <mxCell id="FBjPzx07GxaDUaOyeUmr-113" value="+ grab_sensor():" style="text;html=1;strokeColor=none;fillColor=none;align=left;verticalAlign=top;spacingLeft=4;spacingRight=4;whiteSpace=wrap;overflow=hidden;rotatable=0;points=[[0,0.5],[1,0.5]];portConstraint=eastwest;" parent="FBjPzx07GxaDUaOyeUmr-108" vertex="1">
          <mxGeometry y="100" width="223" height="26" as="geometry" />
        </mxCell>
        <mxCell id="FBjPzx07GxaDUaOyeUmr-114" value="+ preintegrate():" style="text;html=1;strokeColor=none;fillColor=none;align=left;verticalAlign=top;spacingLeft=4;spacingRight=4;whiteSpace=wrap;overflow=hidden;rotatable=0;points=[[0,0.5],[1,0.5]];portConstraint=eastwest;" parent="FBjPzx07GxaDUaOyeUmr-108" vertex="1">
          <mxGeometry y="126" width="223" height="26" as="geometry" />
        </mxCell>
        <mxCell id="FBjPzx07GxaDUaOyeUmr-116" value="" style="shape=curlyBracket;whiteSpace=wrap;html=1;rounded=1;labelPosition=left;verticalLabelPosition=middle;align=right;verticalAlign=middle;rotation=90;" parent="1" vertex="1">
          <mxGeometry x="-478.06" y="734" width="34.75" height="784.9" as="geometry" />
        </mxCell>
        <mxCell id="FBjPzx07GxaDUaOyeUmr-119" value="&lt;span style=&quot;font-size: 22px;&quot;&gt;Loop Detector&lt;/span&gt;" style="shape=module;align=left;spacingLeft=20;align=center;verticalAlign=top;whiteSpace=wrap;html=1;" parent="1" vertex="1">
          <mxGeometry x="1180" y="631" width="736" height="794" as="geometry" />
        </mxCell>
        <mxCell id="FBjPzx07GxaDUaOyeUmr-125" style="edgeStyle=orthogonalEdgeStyle;rounded=0;orthogonalLoop=1;jettySize=auto;html=1;entryX=0;entryY=0;entryDx=0;entryDy=15;entryPerimeter=0;" parent="1" source="FBjPzx07GxaDUaOyeUmr-120" target="FBjPzx07GxaDUaOyeUmr-119" edge="1">
          <mxGeometry relative="1" as="geometry" />
        </mxCell>
        <mxCell id="FBjPzx07GxaDUaOyeUmr-120" value="&lt;font style=&quot;font-size: 16px;&quot;&gt;Data Chunk&lt;/font&gt;" style="rounded=1;whiteSpace=wrap;html=1;" parent="1" vertex="1">
          <mxGeometry x="1028" y="587" width="78" height="47" as="geometry" />
        </mxCell>
        <mxCell id="FBjPzx07GxaDUaOyeUmr-121" value="&lt;font style=&quot;font-size: 16px;&quot;&gt;Factors&lt;/font&gt;" style="rounded=1;whiteSpace=wrap;html=1;" parent="1" vertex="1">
          <mxGeometry x="1037" y="695" width="83" height="41" as="geometry" />
        </mxCell>
        <mxCell id="FBjPzx07GxaDUaOyeUmr-124" style="edgeStyle=orthogonalEdgeStyle;rounded=0;orthogonalLoop=1;jettySize=auto;html=1;exitX=0;exitY=0;exitDx=0;exitDy=35;exitPerimeter=0;entryX=1;entryY=0.5;entryDx=0;entryDy=0;" parent="1" source="FBjPzx07GxaDUaOyeUmr-119" target="FBjPzx07GxaDUaOyeUmr-121" edge="1">
          <mxGeometry relative="1" as="geometry">
            <mxPoint x="1191" y="697" as="sourcePoint" />
            <mxPoint x="1146" y="721" as="targetPoint" />
          </mxGeometry>
        </mxCell>
        <mxCell id="FBjPzx07GxaDUaOyeUmr-127" style="edgeStyle=orthogonalEdgeStyle;rounded=0;orthogonalLoop=1;jettySize=auto;html=1;entryX=0;entryY=0;entryDx=0;entryDy=15;entryPerimeter=0;" parent="1" source="FBjPzx07GxaDUaOyeUmr-126" target="FBjPzx07GxaDUaOyeUmr-119" edge="1">
          <mxGeometry relative="1" as="geometry" />
        </mxCell>
        <mxCell id="FBjPzx07GxaDUaOyeUmr-126" value="&lt;font style=&quot;font-size: 16px;&quot;&gt;graph&lt;/font&gt;" style="rounded=1;whiteSpace=wrap;html=1;" parent="1" vertex="1">
          <mxGeometry x="1028" y="530" width="78" height="47" as="geometry" />
        </mxCell>
        <mxCell id="FBjPzx07GxaDUaOyeUmr-138" style="edgeStyle=orthogonalEdgeStyle;rounded=0;orthogonalLoop=1;jettySize=auto;html=1;entryX=1;entryY=0.5;entryDx=0;entryDy=0;" parent="1" source="FBjPzx07GxaDUaOyeUmr-133" target="FBjPzx07GxaDUaOyeUmr-137" edge="1">
          <mxGeometry relative="1" as="geometry" />
        </mxCell>
        <mxCell id="FBjPzx07GxaDUaOyeUmr-133" value="&lt;font style=&quot;font-size: 16px;&quot;&gt;TrajectoryAnalyzer&lt;/font&gt;" style="shape=module;align=left;spacingLeft=20;align=center;verticalAlign=top;whiteSpace=wrap;html=1;" parent="1" vertex="1">
          <mxGeometry x="1409" y="722" width="188" height="74" as="geometry" />
        </mxCell>
        <mxCell id="FBjPzx07GxaDUaOyeUmr-136" style="edgeStyle=orthogonalEdgeStyle;rounded=0;orthogonalLoop=1;jettySize=auto;html=1;entryX=0;entryY=0;entryDx=0;entryDy=15;entryPerimeter=0;" parent="1" source="FBjPzx07GxaDUaOyeUmr-135" target="FBjPzx07GxaDUaOyeUmr-133" edge="1">
          <mxGeometry relative="1" as="geometry" />
        </mxCell>
        <mxCell id="FBjPzx07GxaDUaOyeUmr-135" value="&lt;font style=&quot;font-size: 16px;&quot;&gt;poses&lt;/font&gt;" style="rounded=1;whiteSpace=wrap;html=1;" parent="1" vertex="1">
          <mxGeometry x="1300" y="708" width="51" height="26" as="geometry" />
        </mxCell>
        <mxCell id="FBjPzx07GxaDUaOyeUmr-137" value="&lt;span style=&quot;font-size: 16px;&quot;&gt;candidates&lt;/span&gt;" style="rounded=1;whiteSpace=wrap;html=1;" parent="1" vertex="1">
          <mxGeometry x="1286" y="770" width="89" height="33" as="geometry" />
        </mxCell>
        <mxCell id="FBjPzx07GxaDUaOyeUmr-139" style="edgeStyle=orthogonalEdgeStyle;rounded=0;orthogonalLoop=1;jettySize=auto;html=1;entryX=1;entryY=0.5;entryDx=0;entryDy=0;" parent="1" source="FBjPzx07GxaDUaOyeUmr-140" target="FBjPzx07GxaDUaOyeUmr-143" edge="1">
          <mxGeometry relative="1" as="geometry" />
        </mxCell>
        <mxCell id="FBjPzx07GxaDUaOyeUmr-140" value="&lt;span style=&quot;font-size: 16px;&quot;&gt;LidarScanContext&lt;/span&gt;" style="shape=module;align=left;spacingLeft=20;align=center;verticalAlign=top;whiteSpace=wrap;html=1;" parent="1" vertex="1">
          <mxGeometry x="1409" y="943" width="188" height="74" as="geometry" />
        </mxCell>
        <mxCell id="FBjPzx07GxaDUaOyeUmr-141" style="edgeStyle=orthogonalEdgeStyle;rounded=0;orthogonalLoop=1;jettySize=auto;html=1;entryX=0;entryY=0;entryDx=0;entryDy=15;entryPerimeter=0;exitX=1;exitY=0.5;exitDx=0;exitDy=0;" parent="1" source="FBjPzx07GxaDUaOyeUmr-162" target="FBjPzx07GxaDUaOyeUmr-140" edge="1">
          <mxGeometry relative="1" as="geometry">
            <mxPoint x="1340.9999999999995" y="942" as="sourcePoint" />
          </mxGeometry>
        </mxCell>
        <mxCell id="FBjPzx07GxaDUaOyeUmr-143" value="&lt;span style=&quot;font-size: 16px;&quot;&gt;candidates&lt;/span&gt;" style="rounded=1;whiteSpace=wrap;html=1;" parent="1" vertex="1">
          <mxGeometry x="1286" y="989" width="89" height="33" as="geometry" />
        </mxCell>
        <mxCell id="FBjPzx07GxaDUaOyeUmr-146" style="edgeStyle=orthogonalEdgeStyle;rounded=0;orthogonalLoop=1;jettySize=auto;html=1;entryX=0;entryY=0;entryDx=0;entryDy=15;entryPerimeter=0;" parent="1" source="FBjPzx07GxaDUaOyeUmr-145" target="FBjPzx07GxaDUaOyeUmr-140" edge="1">
          <mxGeometry relative="1" as="geometry" />
        </mxCell>
        <mxCell id="FBjPzx07GxaDUaOyeUmr-145" value="&lt;span style=&quot;font-size: 16px;&quot;&gt;candidates&lt;/span&gt;" style="rounded=1;whiteSpace=wrap;html=1;" parent="1" vertex="1">
          <mxGeometry x="1274" y="887" width="89" height="33" as="geometry" />
        </mxCell>
        <mxCell id="FBjPzx07GxaDUaOyeUmr-147" style="edgeStyle=orthogonalEdgeStyle;rounded=0;orthogonalLoop=1;jettySize=auto;html=1;entryX=1;entryY=0.5;entryDx=0;entryDy=0;" parent="1" source="FBjPzx07GxaDUaOyeUmr-148" target="FBjPzx07GxaDUaOyeUmr-151" edge="1">
          <mxGeometry relative="1" as="geometry" />
        </mxCell>
        <mxCell id="FBjPzx07GxaDUaOyeUmr-148" value="&lt;span style=&quot;font-size: 16px;&quot;&gt;CameraImgContext&lt;/span&gt;" style="shape=module;align=left;spacingLeft=20;align=center;verticalAlign=top;whiteSpace=wrap;html=1;" parent="1" vertex="1">
          <mxGeometry x="1409" y="1128" width="188" height="74" as="geometry" />
        </mxCell>
        <mxCell id="FBjPzx07GxaDUaOyeUmr-149" style="edgeStyle=orthogonalEdgeStyle;rounded=0;orthogonalLoop=1;jettySize=auto;html=1;entryX=0;entryY=0;entryDx=0;entryDy=15;entryPerimeter=0;exitX=1;exitY=0.5;exitDx=0;exitDy=0;" parent="1" source="FBjPzx07GxaDUaOyeUmr-161" target="FBjPzx07GxaDUaOyeUmr-148" edge="1">
          <mxGeometry relative="1" as="geometry">
            <mxPoint x="1340.9999999999995" y="1127" as="sourcePoint" />
          </mxGeometry>
        </mxCell>
        <mxCell id="FBjPzx07GxaDUaOyeUmr-151" value="&lt;span style=&quot;font-size: 16px;&quot;&gt;candidates&lt;/span&gt;" style="rounded=1;whiteSpace=wrap;html=1;" parent="1" vertex="1">
          <mxGeometry x="1286" y="1167" width="89" height="33" as="geometry" />
        </mxCell>
        <mxCell id="FBjPzx07GxaDUaOyeUmr-152" style="edgeStyle=orthogonalEdgeStyle;rounded=0;orthogonalLoop=1;jettySize=auto;html=1;entryX=0;entryY=0;entryDx=0;entryDy=15;entryPerimeter=0;" parent="1" source="FBjPzx07GxaDUaOyeUmr-153" target="FBjPzx07GxaDUaOyeUmr-148" edge="1">
          <mxGeometry relative="1" as="geometry" />
        </mxCell>
        <mxCell id="FBjPzx07GxaDUaOyeUmr-153" value="&lt;span style=&quot;font-size: 16px;&quot;&gt;candidates&lt;/span&gt;" style="rounded=1;whiteSpace=wrap;html=1;" parent="1" vertex="1">
          <mxGeometry x="1274" y="1072" width="89" height="33" as="geometry" />
        </mxCell>
        <mxCell id="FBjPzx07GxaDUaOyeUmr-154" style="edgeStyle=orthogonalEdgeStyle;rounded=0;orthogonalLoop=1;jettySize=auto;html=1;entryX=1;entryY=0.5;entryDx=0;entryDy=0;" parent="1" source="FBjPzx07GxaDUaOyeUmr-155" target="FBjPzx07GxaDUaOyeUmr-158" edge="1">
          <mxGeometry relative="1" as="geometry" />
        </mxCell>
        <mxCell id="FBjPzx07GxaDUaOyeUmr-155" value="&lt;span style=&quot;font-size: 16px;&quot;&gt;AnyContext&lt;/span&gt;" style="shape=module;align=left;spacingLeft=20;align=center;verticalAlign=top;whiteSpace=wrap;html=1;" parent="1" vertex="1">
          <mxGeometry x="1409" y="1310.44" width="188" height="74" as="geometry" />
        </mxCell>
        <mxCell id="FBjPzx07GxaDUaOyeUmr-156" style="edgeStyle=orthogonalEdgeStyle;rounded=0;orthogonalLoop=1;jettySize=auto;html=1;entryX=0;entryY=0;entryDx=0;entryDy=15;entryPerimeter=0;" parent="1" source="FBjPzx07GxaDUaOyeUmr-157" target="FBjPzx07GxaDUaOyeUmr-155" edge="1">
          <mxGeometry relative="1" as="geometry" />
        </mxCell>
        <mxCell id="FBjPzx07GxaDUaOyeUmr-157" value="&lt;font style=&quot;font-size: 16px;&quot;&gt;measurements&lt;/font&gt;" style="rounded=1;whiteSpace=wrap;html=1;" parent="1" vertex="1">
          <mxGeometry x="1251" y="1296.44" width="112" height="26" as="geometry" />
        </mxCell>
        <mxCell id="FBjPzx07GxaDUaOyeUmr-158" value="&lt;span style=&quot;font-size: 16px;&quot;&gt;candidates&lt;/span&gt;" style="rounded=1;whiteSpace=wrap;html=1;" parent="1" vertex="1">
          <mxGeometry x="1281" y="1351.44" width="89" height="33" as="geometry" />
        </mxCell>
        <mxCell id="FBjPzx07GxaDUaOyeUmr-159" style="edgeStyle=orthogonalEdgeStyle;rounded=0;orthogonalLoop=1;jettySize=auto;html=1;entryX=0;entryY=0;entryDx=0;entryDy=15;entryPerimeter=0;" parent="1" source="FBjPzx07GxaDUaOyeUmr-160" target="FBjPzx07GxaDUaOyeUmr-155" edge="1">
          <mxGeometry relative="1" as="geometry" />
        </mxCell>
        <mxCell id="FBjPzx07GxaDUaOyeUmr-160" value="&lt;span style=&quot;font-size: 16px;&quot;&gt;candidates&lt;/span&gt;" style="rounded=1;whiteSpace=wrap;html=1;" parent="1" vertex="1">
          <mxGeometry x="1274" y="1254.44" width="89" height="33" as="geometry" />
        </mxCell>
        <mxCell id="FBjPzx07GxaDUaOyeUmr-161" value="&lt;font style=&quot;font-size: 16px;&quot;&gt;measurements&lt;/font&gt;" style="rounded=1;whiteSpace=wrap;html=1;" parent="1" vertex="1">
          <mxGeometry x="1251" y="1113.45" width="112" height="26" as="geometry" />
        </mxCell>
        <mxCell id="FBjPzx07GxaDUaOyeUmr-162" value="&lt;font style=&quot;font-size: 16px;&quot;&gt;measurements&lt;/font&gt;" style="rounded=1;whiteSpace=wrap;html=1;" parent="1" vertex="1">
          <mxGeometry x="1251" y="929" width="112" height="26" as="geometry" />
        </mxCell>
        <mxCell id="FBjPzx07GxaDUaOyeUmr-163" value="&lt;i&gt;Candidates as input are optional*&lt;/i&gt;" style="text;html=1;strokeColor=none;fillColor=none;align=center;verticalAlign=middle;whiteSpace=wrap;rounded=0;" parent="1" vertex="1">
          <mxGeometry x="1443" y="857" width="185" height="30" as="geometry" />
        </mxCell>
        <mxCell id="FBjPzx07GxaDUaOyeUmr-164" value="Candidate" style="swimlane;html=1;fontStyle=1;align=center;verticalAlign=top;childLayout=stackLayout;horizontal=1;startSize=26;horizontalStack=0;resizeParent=1;resizeLast=0;collapsible=1;marginBottom=0;swimlaneFillColor=#ffffff;rounded=0;shadow=0;comic=0;labelBackgroundColor=none;strokeWidth=1;fillColor=none;fontFamily=Verdana;fontSize=12" parent="1" vertex="1">
          <mxGeometry x="1724" y="722" width="170" height="148" as="geometry" />
        </mxCell>
        <mxCell id="FBjPzx07GxaDUaOyeUmr-165" value="+ pose1: graph_pose" style="text;html=1;strokeColor=none;fillColor=none;align=left;verticalAlign=top;spacingLeft=4;spacingRight=4;whiteSpace=wrap;overflow=hidden;rotatable=0;points=[[0,0.5],[1,0.5]];portConstraint=eastwest;" parent="FBjPzx07GxaDUaOyeUmr-164" vertex="1">
          <mxGeometry y="26" width="170" height="24" as="geometry" />
        </mxCell>
        <mxCell id="FBjPzx07GxaDUaOyeUmr-166" value="+ pose2: graph_pose" style="text;html=1;strokeColor=none;fillColor=none;align=left;verticalAlign=top;spacingLeft=4;spacingRight=4;whiteSpace=wrap;overflow=hidden;rotatable=0;points=[[0,0.5],[1,0.5]];portConstraint=eastwest;" parent="FBjPzx07GxaDUaOyeUmr-164" vertex="1">
          <mxGeometry y="50" width="170" height="20" as="geometry" />
        </mxCell>
        <mxCell id="FBjPzx07GxaDUaOyeUmr-167" value="+ relative_tf: array" style="text;html=1;strokeColor=none;fillColor=none;align=left;verticalAlign=top;spacingLeft=4;spacingRight=4;whiteSpace=wrap;overflow=hidden;rotatable=0;points=[[0,0.5],[1,0.5]];portConstraint=eastwest;" parent="FBjPzx07GxaDUaOyeUmr-164" vertex="1">
          <mxGeometry y="70" width="170" height="20" as="geometry" />
        </mxCell>
        <mxCell id="FBjPzx07GxaDUaOyeUmr-169" value="+ score: float" style="text;html=1;strokeColor=none;fillColor=none;align=left;verticalAlign=top;spacingLeft=4;spacingRight=4;whiteSpace=wrap;overflow=hidden;rotatable=0;points=[[0,0.5],[1,0.5]];portConstraint=eastwest;" parent="FBjPzx07GxaDUaOyeUmr-164" vertex="1">
          <mxGeometry y="90" width="170" height="20" as="geometry" />
        </mxCell>
        <mxCell id="FBjPzx07GxaDUaOyeUmr-168" value="" style="line;html=1;strokeWidth=1;fillColor=none;align=left;verticalAlign=middle;spacingTop=-1;spacingLeft=3;spacingRight=3;rotatable=0;labelPosition=right;points=[];portConstraint=eastwest;" parent="FBjPzx07GxaDUaOyeUmr-164" vertex="1">
          <mxGeometry y="110" width="170" height="8" as="geometry" />
        </mxCell>
        <mxCell id="FBjPzx07GxaDUaOyeUmr-170" value="&lt;span style=&quot;font-size: 22px;&quot;&gt;Anomaly Detector&lt;/span&gt;" style="shape=module;align=left;spacingLeft=20;align=center;verticalAlign=top;whiteSpace=wrap;html=1;" parent="1" vertex="1">
          <mxGeometry x="2221" y="633.5" width="475" height="514.5" as="geometry" />
        </mxCell>
        <mxCell id="FBjPzx07GxaDUaOyeUmr-173" value="&lt;font style=&quot;font-size: 16px;&quot;&gt;same as input&lt;/font&gt;" style="rounded=1;whiteSpace=wrap;html=1;" parent="1" vertex="1">
          <mxGeometry x="2018" y="678" width="117" height="41" as="geometry" />
        </mxCell>
        <mxCell id="FBjPzx07GxaDUaOyeUmr-174" style="edgeStyle=orthogonalEdgeStyle;rounded=0;orthogonalLoop=1;jettySize=auto;html=1;exitX=0;exitY=0;exitDx=0;exitDy=35;exitPerimeter=0;entryX=1;entryY=0.5;entryDx=0;entryDy=0;" parent="1" source="FBjPzx07GxaDUaOyeUmr-170" target="FBjPzx07GxaDUaOyeUmr-173" edge="1">
          <mxGeometry relative="1" as="geometry">
            <mxPoint x="2232" y="699.5" as="sourcePoint" />
            <mxPoint x="2187" y="723.5" as="targetPoint" />
          </mxGeometry>
        </mxCell>
        <mxCell id="FBjPzx07GxaDUaOyeUmr-175" style="edgeStyle=orthogonalEdgeStyle;rounded=0;orthogonalLoop=1;jettySize=auto;html=1;entryX=0;entryY=0;entryDx=0;entryDy=15;entryPerimeter=0;" parent="1" source="FBjPzx07GxaDUaOyeUmr-176" target="FBjPzx07GxaDUaOyeUmr-170" edge="1">
          <mxGeometry relative="1" as="geometry" />
        </mxCell>
        <mxCell id="FBjPzx07GxaDUaOyeUmr-176" value="&lt;font style=&quot;font-size: 16px;&quot;&gt;Raw measurements/&lt;br&gt;Loop candidates/&lt;br&gt;processed measurements&lt;br&gt;&lt;/font&gt;" style="rounded=1;whiteSpace=wrap;html=1;" parent="1" vertex="1">
          <mxGeometry x="1972" y="491.5" width="209" height="98.5" as="geometry" />
        </mxCell>
        <mxCell id="FBjPzx07GxaDUaOyeUmr-177" style="edgeStyle=orthogonalEdgeStyle;rounded=0;orthogonalLoop=1;jettySize=auto;html=1;entryX=1;entryY=0.5;entryDx=0;entryDy=0;" parent="1" source="FBjPzx07GxaDUaOyeUmr-178" target="FBjPzx07GxaDUaOyeUmr-181" edge="1">
          <mxGeometry relative="1" as="geometry" />
        </mxCell>
        <mxCell id="FBjPzx07GxaDUaOyeUmr-178" value="&lt;font style=&quot;font-size: 16px;&quot;&gt;Model1&lt;/font&gt;" style="shape=module;align=left;spacingLeft=20;align=center;verticalAlign=top;whiteSpace=wrap;html=1;" parent="1" vertex="1">
          <mxGeometry x="2450" y="724.5" width="188" height="74" as="geometry" />
        </mxCell>
        <mxCell id="FBjPzx07GxaDUaOyeUmr-179" style="edgeStyle=orthogonalEdgeStyle;rounded=0;orthogonalLoop=1;jettySize=auto;html=1;entryX=0;entryY=0;entryDx=0;entryDy=15;entryPerimeter=0;" parent="1" source="FBjPzx07GxaDUaOyeUmr-180" target="FBjPzx07GxaDUaOyeUmr-178" edge="1">
          <mxGeometry relative="1" as="geometry" />
        </mxCell>
        <mxCell id="FBjPzx07GxaDUaOyeUmr-180" value="&lt;span style=&quot;font-size: 16px;&quot;&gt;RawMeasurement&lt;/span&gt;" style="rounded=1;whiteSpace=wrap;html=1;" parent="1" vertex="1">
          <mxGeometry x="2265" y="710" width="137" height="26" as="geometry" />
        </mxCell>
        <mxCell id="FBjPzx07GxaDUaOyeUmr-181" value="&lt;span style=&quot;font-size: 16px;&quot;&gt;label&lt;/span&gt;" style="rounded=1;whiteSpace=wrap;html=1;" parent="1" vertex="1">
          <mxGeometry x="2299" y="750.5" width="89" height="22" as="geometry" />
        </mxCell>
        <mxCell id="FBjPzx07GxaDUaOyeUmr-215" style="edgeStyle=orthogonalEdgeStyle;rounded=0;orthogonalLoop=1;jettySize=auto;html=1;entryX=1;entryY=0.5;entryDx=0;entryDy=0;" parent="1" source="FBjPzx07GxaDUaOyeUmr-216" target="FBjPzx07GxaDUaOyeUmr-219" edge="1">
          <mxGeometry relative="1" as="geometry" />
        </mxCell>
        <mxCell id="FBjPzx07GxaDUaOyeUmr-216" value="&lt;font style=&quot;font-size: 16px;&quot;&gt;Model2&lt;/font&gt;" style="shape=module;align=left;spacingLeft=20;align=center;verticalAlign=top;whiteSpace=wrap;html=1;" parent="1" vertex="1">
          <mxGeometry x="2450" y="887" width="188" height="74" as="geometry" />
        </mxCell>
        <mxCell id="FBjPzx07GxaDUaOyeUmr-217" style="edgeStyle=orthogonalEdgeStyle;rounded=0;orthogonalLoop=1;jettySize=auto;html=1;entryX=0;entryY=0;entryDx=0;entryDy=15;entryPerimeter=0;" parent="1" source="FBjPzx07GxaDUaOyeUmr-218" target="FBjPzx07GxaDUaOyeUmr-216" edge="1">
          <mxGeometry relative="1" as="geometry" />
        </mxCell>
        <mxCell id="FBjPzx07GxaDUaOyeUmr-218" value="&lt;span style=&quot;font-size: 16px;&quot;&gt;ProcessedMeasurement&lt;/span&gt;" style="rounded=1;whiteSpace=wrap;html=1;" parent="1" vertex="1">
          <mxGeometry x="2235" y="864" width="182" height="26" as="geometry" />
        </mxCell>
        <mxCell id="FBjPzx07GxaDUaOyeUmr-219" value="&lt;span style=&quot;font-size: 16px;&quot;&gt;label&lt;/span&gt;" style="rounded=1;whiteSpace=wrap;html=1;" parent="1" vertex="1">
          <mxGeometry x="2299" y="913" width="89" height="22" as="geometry" />
        </mxCell>
        <mxCell id="FBjPzx07GxaDUaOyeUmr-221" style="edgeStyle=orthogonalEdgeStyle;rounded=0;orthogonalLoop=1;jettySize=auto;html=1;entryX=1;entryY=0.5;entryDx=0;entryDy=0;" parent="1" source="FBjPzx07GxaDUaOyeUmr-222" target="FBjPzx07GxaDUaOyeUmr-225" edge="1">
          <mxGeometry relative="1" as="geometry" />
        </mxCell>
        <mxCell id="FBjPzx07GxaDUaOyeUmr-222" value="&lt;font style=&quot;font-size: 16px;&quot;&gt;Model3&lt;/font&gt;" style="shape=module;align=left;spacingLeft=20;align=center;verticalAlign=top;whiteSpace=wrap;html=1;" parent="1" vertex="1">
          <mxGeometry x="2450" y="1045" width="188" height="74" as="geometry" />
        </mxCell>
        <mxCell id="FBjPzx07GxaDUaOyeUmr-223" style="edgeStyle=orthogonalEdgeStyle;rounded=0;orthogonalLoop=1;jettySize=auto;html=1;entryX=0;entryY=0;entryDx=0;entryDy=15;entryPerimeter=0;" parent="1" source="FBjPzx07GxaDUaOyeUmr-224" target="FBjPzx07GxaDUaOyeUmr-222" edge="1">
          <mxGeometry relative="1" as="geometry" />
        </mxCell>
        <mxCell id="FBjPzx07GxaDUaOyeUmr-224" value="&lt;span style=&quot;font-size: 16px;&quot;&gt;something else&lt;/span&gt;" style="rounded=1;whiteSpace=wrap;html=1;" parent="1" vertex="1">
          <mxGeometry x="2235" y="1022" width="182" height="26" as="geometry" />
        </mxCell>
        <mxCell id="FBjPzx07GxaDUaOyeUmr-225" value="&lt;span style=&quot;font-size: 16px;&quot;&gt;label&lt;/span&gt;" style="rounded=1;whiteSpace=wrap;html=1;" parent="1" vertex="1">
          <mxGeometry x="2299" y="1071" width="89" height="22" as="geometry" />
        </mxCell>
        <mxCell id="FBjPzx07GxaDUaOyeUmr-227" style="edgeStyle=orthogonalEdgeStyle;rounded=0;orthogonalLoop=1;jettySize=auto;html=1;entryX=0;entryY=0;entryDx=0;entryDy=15;entryPerimeter=0;" parent="1" source="FBjPzx07GxaDUaOyeUmr-226" target="FBjPzx07GxaDUaOyeUmr-170" edge="1">
          <mxGeometry relative="1" as="geometry" />
        </mxCell>
        <mxCell id="FBjPzx07GxaDUaOyeUmr-226" value="&lt;span style=&quot;font-size: 16px;&quot;&gt;graph&lt;/span&gt;" style="rounded=1;whiteSpace=wrap;html=1;" parent="1" vertex="1">
          <mxGeometry x="2064" y="420" width="117" height="41" as="geometry" />
        </mxCell>
        <mxCell id="FBjPzx07GxaDUaOyeUmr-268" value="&lt;span style=&quot;font-size: 22px;&quot;&gt;Graph Builder&lt;/span&gt;" style="shape=module;align=left;spacingLeft=20;align=center;verticalAlign=top;whiteSpace=wrap;html=1;" parent="1" vertex="1">
          <mxGeometry x="3105" y="556" width="1883" height="2167" as="geometry" />
        </mxCell>
        <mxCell id="FBjPzx07GxaDUaOyeUmr-271" value="&lt;font style=&quot;font-size: 16px;&quot;&gt;Graph&lt;/font&gt;" style="rounded=1;whiteSpace=wrap;html=1;" parent="1" vertex="1">
          <mxGeometry x="2929" y="615" width="83" height="41" as="geometry" />
        </mxCell>
        <mxCell id="FBjPzx07GxaDUaOyeUmr-272" style="edgeStyle=orthogonalEdgeStyle;rounded=0;orthogonalLoop=1;jettySize=auto;html=1;exitX=0;exitY=0;exitDx=0;exitDy=35;exitPerimeter=0;entryX=1;entryY=0.5;entryDx=0;entryDy=0;" parent="1" source="FBjPzx07GxaDUaOyeUmr-268" target="FBjPzx07GxaDUaOyeUmr-271" edge="1">
          <mxGeometry relative="1" as="geometry">
            <mxPoint x="3078" y="671.5" as="sourcePoint" />
            <mxPoint x="3033" y="695.5" as="targetPoint" />
          </mxGeometry>
        </mxCell>
        <mxCell id="FBjPzx07GxaDUaOyeUmr-273" style="edgeStyle=orthogonalEdgeStyle;rounded=0;orthogonalLoop=1;jettySize=auto;html=1;entryX=0;entryY=0;entryDx=0;entryDy=15;entryPerimeter=0;" parent="1" source="FBjPzx07GxaDUaOyeUmr-274" target="FBjPzx07GxaDUaOyeUmr-268" edge="1">
          <mxGeometry relative="1" as="geometry" />
        </mxCell>
        <mxCell id="FBjPzx07GxaDUaOyeUmr-274" value="&lt;span style=&quot;font-size: 16px;&quot;&gt;Processed Measurements&lt;/span&gt;" style="rounded=1;whiteSpace=wrap;html=1;" parent="1" vertex="1">
          <mxGeometry x="2912.5" y="532" width="116" height="47" as="geometry" />
        </mxCell>
        <mxCell id="FBjPzx07GxaDUaOyeUmr-275" style="edgeStyle=orthogonalEdgeStyle;rounded=0;orthogonalLoop=1;jettySize=auto;html=1;entryX=1;entryY=0.5;entryDx=0;entryDy=0;" parent="1" source="FBjPzx07GxaDUaOyeUmr-276" target="FBjPzx07GxaDUaOyeUmr-279" edge="1">
          <mxGeometry relative="1" as="geometry" />
        </mxCell>
        <mxCell id="FBjPzx07GxaDUaOyeUmr-276" value="&lt;font style=&quot;font-size: 16px;&quot;&gt;Initializer&lt;/font&gt;" style="shape=module;align=left;spacingLeft=20;align=center;verticalAlign=top;whiteSpace=wrap;html=1;" parent="1" vertex="1">
          <mxGeometry x="3296" y="696.5" width="188" height="74" as="geometry" />
        </mxCell>
        <mxCell id="FBjPzx07GxaDUaOyeUmr-277" style="edgeStyle=orthogonalEdgeStyle;rounded=0;orthogonalLoop=1;jettySize=auto;html=1;entryX=0;entryY=0;entryDx=0;entryDy=15;entryPerimeter=0;" parent="1" source="FBjPzx07GxaDUaOyeUmr-278" target="FBjPzx07GxaDUaOyeUmr-276" edge="1">
          <mxGeometry relative="1" as="geometry" />
        </mxCell>
        <mxCell id="FBjPzx07GxaDUaOyeUmr-278" value="&lt;font style=&quot;font-size: 16px;&quot;&gt;init params&lt;/font&gt;" style="rounded=1;whiteSpace=wrap;html=1;" parent="1" vertex="1">
          <mxGeometry x="3160" y="670" width="78" height="38.5" as="geometry" />
        </mxCell>
        <mxCell id="FBjPzx07GxaDUaOyeUmr-279" value="&lt;span style=&quot;font-size: 16px;&quot;&gt;Graph&lt;/span&gt;" style="rounded=1;whiteSpace=wrap;html=1;" parent="1" vertex="1">
          <mxGeometry x="3154.5" y="730" width="89" height="33" as="geometry" />
        </mxCell>
        <mxCell id="FBjPzx07GxaDUaOyeUmr-302" value="Initializer" style="swimlane;html=1;fontStyle=1;align=center;verticalAlign=top;childLayout=stackLayout;horizontal=1;startSize=26;horizontalStack=0;resizeParent=1;resizeLast=0;collapsible=1;marginBottom=0;swimlaneFillColor=#ffffff;rounded=0;shadow=0;comic=0;labelBackgroundColor=none;strokeWidth=1;fillColor=none;fontFamily=Verdana;fontSize=12" parent="1" vertex="1">
          <mxGeometry x="3611" y="696.5" width="170" height="178" as="geometry" />
        </mxCell>
        <mxCell id="FBjPzx07GxaDUaOyeUmr-303" value="+ node_types: list" style="text;html=1;strokeColor=none;fillColor=none;align=left;verticalAlign=top;spacingLeft=4;spacingRight=4;whiteSpace=wrap;overflow=hidden;rotatable=0;points=[[0,0.5],[1,0.5]];portConstraint=eastwest;" parent="FBjPzx07GxaDUaOyeUmr-302" vertex="1">
          <mxGeometry y="26" width="170" height="24" as="geometry" />
        </mxCell>
        <mxCell id="FBjPzx07GxaDUaOyeUmr-304" value="+ init_values: dict" style="text;html=1;strokeColor=none;fillColor=none;align=left;verticalAlign=top;spacingLeft=4;spacingRight=4;whiteSpace=wrap;overflow=hidden;rotatable=0;points=[[0,0.5],[1,0.5]];portConstraint=eastwest;" parent="FBjPzx07GxaDUaOyeUmr-302" vertex="1">
          <mxGeometry y="50" width="170" height="20" as="geometry" />
        </mxCell>
        <mxCell id="FBjPzx07GxaDUaOyeUmr-305" value="+ init_weights: dict" style="text;html=1;strokeColor=none;fillColor=none;align=left;verticalAlign=top;spacingLeft=4;spacingRight=4;whiteSpace=wrap;overflow=hidden;rotatable=0;points=[[0,0.5],[1,0.5]];portConstraint=eastwest;" parent="FBjPzx07GxaDUaOyeUmr-302" vertex="1">
          <mxGeometry y="70" width="170" height="20" as="geometry" />
        </mxCell>
        <mxCell id="FBjPzx07GxaDUaOyeUmr-306" value="+ nodes_amount: dict" style="text;html=1;strokeColor=none;fillColor=none;align=left;verticalAlign=top;spacingLeft=4;spacingRight=4;whiteSpace=wrap;overflow=hidden;rotatable=0;points=[[0,0.5],[1,0.5]];portConstraint=eastwest;" parent="FBjPzx07GxaDUaOyeUmr-302" vertex="1">
          <mxGeometry y="90" width="170" height="20" as="geometry" />
        </mxCell>
        <mxCell id="FBjPzx07GxaDUaOyeUmr-307" value="" style="line;html=1;strokeWidth=1;fillColor=none;align=left;verticalAlign=middle;spacingTop=-1;spacingLeft=3;spacingRight=3;rotatable=0;labelPosition=right;points=[];portConstraint=eastwest;" parent="FBjPzx07GxaDUaOyeUmr-302" vertex="1">
          <mxGeometry y="110" width="170" height="8" as="geometry" />
        </mxCell>
        <mxCell id="FBjPzx07GxaDUaOyeUmr-308" value="+ create_nodes(): -&amp;gt; None" style="text;html=1;strokeColor=none;fillColor=none;align=left;verticalAlign=top;spacingLeft=4;spacingRight=4;whiteSpace=wrap;overflow=hidden;rotatable=0;points=[[0,0.5],[1,0.5]];portConstraint=eastwest;" parent="FBjPzx07GxaDUaOyeUmr-302" vertex="1">
          <mxGeometry y="118" width="170" height="20" as="geometry" />
        </mxCell>
        <mxCell id="FBjPzx07GxaDUaOyeUmr-309" value="+ init_nodes(): -&amp;gt; None" style="text;html=1;strokeColor=none;fillColor=none;align=left;verticalAlign=top;spacingLeft=4;spacingRight=4;whiteSpace=wrap;overflow=hidden;rotatable=0;points=[[0,0.5],[1,0.5]];portConstraint=eastwest;" parent="FBjPzx07GxaDUaOyeUmr-302" vertex="1">
          <mxGeometry y="138" width="170" height="20" as="geometry" />
        </mxCell>
        <mxCell id="FBjPzx07GxaDUaOyeUmr-310" value="+ add_factors(): -&amp;gt; None" style="text;html=1;strokeColor=none;fillColor=none;align=left;verticalAlign=top;spacingLeft=4;spacingRight=4;whiteSpace=wrap;overflow=hidden;rotatable=0;points=[[0,0.5],[1,0.5]];portConstraint=eastwest;" parent="FBjPzx07GxaDUaOyeUmr-302" vertex="1">
          <mxGeometry y="158" width="170" height="20" as="geometry" />
        </mxCell>
        <mxCell id="kGsRBveOM_xcWzTE8fmM-19" style="edgeStyle=orthogonalEdgeStyle;rounded=0;orthogonalLoop=1;jettySize=auto;html=1;entryX=0.1;entryY=0.5;entryDx=0;entryDy=0;entryPerimeter=0;" parent="1" source="FBjPzx07GxaDUaOyeUmr-311" target="kGsRBveOM_xcWzTE8fmM-13" edge="1">
          <mxGeometry relative="1" as="geometry" />
        </mxCell>
        <mxCell id="FBjPzx07GxaDUaOyeUmr-311" value="abstract Vertex" style="swimlane;html=1;fontStyle=1;align=center;verticalAlign=top;childLayout=stackLayout;horizontal=1;startSize=26;horizontalStack=0;resizeParent=1;resizeLast=0;collapsible=1;marginBottom=0;swimlaneFillColor=#ffffff;rounded=0;shadow=0;comic=0;labelBackgroundColor=none;strokeWidth=1;fillColor=none;fontFamily=Verdana;fontSize=12" parent="1" vertex="1">
          <mxGeometry x="3453.49" y="983" width="195" height="90" as="geometry" />
        </mxCell>
        <mxCell id="FBjPzx07GxaDUaOyeUmr-312" value="+ gtsam_vertice: GTSAM_vertice" style="text;html=1;strokeColor=none;fillColor=none;align=left;verticalAlign=top;spacingLeft=4;spacingRight=4;whiteSpace=wrap;overflow=hidden;rotatable=0;points=[[0,0.5],[1,0.5]];portConstraint=eastwest;" parent="FBjPzx07GxaDUaOyeUmr-311" vertex="1">
          <mxGeometry y="26" width="195" height="24" as="geometry" />
        </mxCell>
        <mxCell id="FBjPzx07GxaDUaOyeUmr-316" value="" style="line;html=1;strokeWidth=1;fillColor=none;align=left;verticalAlign=middle;spacingTop=-1;spacingLeft=3;spacingRight=3;rotatable=0;labelPosition=right;points=[];portConstraint=eastwest;" parent="FBjPzx07GxaDUaOyeUmr-311" vertex="1">
          <mxGeometry y="50" width="195" height="8" as="geometry" />
        </mxCell>
        <mxCell id="FBjPzx07GxaDUaOyeUmr-317" value="+ delete_vertice(): -&amp;gt; None" style="text;html=1;strokeColor=none;fillColor=none;align=left;verticalAlign=top;spacingLeft=4;spacingRight=4;whiteSpace=wrap;overflow=hidden;rotatable=0;points=[[0,0.5],[1,0.5]];portConstraint=eastwest;" parent="FBjPzx07GxaDUaOyeUmr-311" vertex="1">
          <mxGeometry y="58" width="195" height="20" as="geometry" />
        </mxCell>
        <mxCell id="kGsRBveOM_xcWzTE8fmM-1" value="Pose(Vertex)" style="swimlane;html=1;fontStyle=1;align=center;verticalAlign=top;childLayout=stackLayout;horizontal=1;startSize=26;horizontalStack=0;resizeParent=1;resizeLast=0;collapsible=1;marginBottom=0;swimlaneFillColor=#ffffff;rounded=0;shadow=0;comic=0;labelBackgroundColor=none;strokeWidth=1;fillColor=none;fontFamily=Verdana;fontSize=12" parent="1" vertex="1">
          <mxGeometry x="3171" y="1133" width="170" height="93" as="geometry" />
        </mxCell>
        <mxCell id="kGsRBveOM_xcWzTE8fmM-62" value="+ time: array" style="text;html=1;strokeColor=none;fillColor=none;align=left;verticalAlign=top;spacingLeft=4;spacingRight=4;whiteSpace=wrap;overflow=hidden;rotatable=0;points=[[0,0.5],[1,0.5]];portConstraint=eastwest;" parent="kGsRBveOM_xcWzTE8fmM-1" vertex="1">
          <mxGeometry y="26" width="170" height="24" as="geometry" />
        </mxCell>
        <mxCell id="kGsRBveOM_xcWzTE8fmM-18" value="+ measurements: dict" style="text;html=1;strokeColor=none;fillColor=none;align=left;verticalAlign=top;spacingLeft=4;spacingRight=4;whiteSpace=wrap;overflow=hidden;rotatable=0;points=[[0,0.5],[1,0.5]];portConstraint=eastwest;" parent="kGsRBveOM_xcWzTE8fmM-1" vertex="1">
          <mxGeometry y="50" width="170" height="24" as="geometry" />
        </mxCell>
        <mxCell id="kGsRBveOM_xcWzTE8fmM-3" value="" style="line;html=1;strokeWidth=1;fillColor=none;align=left;verticalAlign=middle;spacingTop=-1;spacingLeft=3;spacingRight=3;rotatable=0;labelPosition=right;points=[];portConstraint=eastwest;" parent="kGsRBveOM_xcWzTE8fmM-1" vertex="1">
          <mxGeometry y="74" width="170" height="8" as="geometry" />
        </mxCell>
        <mxCell id="kGsRBveOM_xcWzTE8fmM-5" value="Velocity(Vertex" style="swimlane;html=1;fontStyle=1;align=center;verticalAlign=top;childLayout=stackLayout;horizontal=1;startSize=26;horizontalStack=0;resizeParent=1;resizeLast=0;collapsible=1;marginBottom=0;swimlaneFillColor=#ffffff;rounded=0;shadow=0;comic=0;labelBackgroundColor=none;strokeWidth=1;fillColor=none;fontFamily=Verdana;fontSize=12" parent="1" vertex="1">
          <mxGeometry x="3363" y="1133" width="170" height="91" as="geometry" />
        </mxCell>
        <mxCell id="kGsRBveOM_xcWzTE8fmM-28" value="+ time: array" style="text;html=1;strokeColor=none;fillColor=none;align=left;verticalAlign=top;spacingLeft=4;spacingRight=4;whiteSpace=wrap;overflow=hidden;rotatable=0;points=[[0,0.5],[1,0.5]];portConstraint=eastwest;" parent="kGsRBveOM_xcWzTE8fmM-5" vertex="1">
          <mxGeometry y="26" width="170" height="24" as="geometry" />
        </mxCell>
        <mxCell id="kGsRBveOM_xcWzTE8fmM-63" value="+ measurements: dict" style="text;html=1;strokeColor=none;fillColor=none;align=left;verticalAlign=top;spacingLeft=4;spacingRight=4;whiteSpace=wrap;overflow=hidden;rotatable=0;points=[[0,0.5],[1,0.5]];portConstraint=eastwest;" parent="kGsRBveOM_xcWzTE8fmM-5" vertex="1">
          <mxGeometry y="50" width="170" height="24" as="geometry" />
        </mxCell>
        <mxCell id="kGsRBveOM_xcWzTE8fmM-7" value="" style="line;html=1;strokeWidth=1;fillColor=none;align=left;verticalAlign=middle;spacingTop=-1;spacingLeft=3;spacingRight=3;rotatable=0;labelPosition=right;points=[];portConstraint=eastwest;" parent="kGsRBveOM_xcWzTE8fmM-5" vertex="1">
          <mxGeometry y="74" width="170" height="8" as="geometry" />
        </mxCell>
        <mxCell id="kGsRBveOM_xcWzTE8fmM-9" value="Bias(Vertex)" style="swimlane;html=1;fontStyle=1;align=center;verticalAlign=top;childLayout=stackLayout;horizontal=1;startSize=26;horizontalStack=0;resizeParent=1;resizeLast=0;collapsible=1;marginBottom=0;swimlaneFillColor=#ffffff;rounded=0;shadow=0;comic=0;labelBackgroundColor=none;strokeWidth=1;fillColor=none;fontFamily=Verdana;fontSize=12" parent="1" vertex="1">
          <mxGeometry x="3558" y="1133" width="170" height="90" as="geometry" />
        </mxCell>
        <mxCell id="kGsRBveOM_xcWzTE8fmM-29" value="+ time: array" style="text;html=1;strokeColor=none;fillColor=none;align=left;verticalAlign=top;spacingLeft=4;spacingRight=4;whiteSpace=wrap;overflow=hidden;rotatable=0;points=[[0,0.5],[1,0.5]];portConstraint=eastwest;" parent="kGsRBveOM_xcWzTE8fmM-9" vertex="1">
          <mxGeometry y="26" width="170" height="24" as="geometry" />
        </mxCell>
        <mxCell id="kGsRBveOM_xcWzTE8fmM-64" value="+ measurements: dict" style="text;html=1;strokeColor=none;fillColor=none;align=left;verticalAlign=top;spacingLeft=4;spacingRight=4;whiteSpace=wrap;overflow=hidden;rotatable=0;points=[[0,0.5],[1,0.5]];portConstraint=eastwest;" parent="kGsRBveOM_xcWzTE8fmM-9" vertex="1">
          <mxGeometry y="50" width="170" height="24" as="geometry" />
        </mxCell>
        <mxCell id="kGsRBveOM_xcWzTE8fmM-11" value="" style="line;html=1;strokeWidth=1;fillColor=none;align=left;verticalAlign=middle;spacingTop=-1;spacingLeft=3;spacingRight=3;rotatable=0;labelPosition=right;points=[];portConstraint=eastwest;" parent="kGsRBveOM_xcWzTE8fmM-9" vertex="1">
          <mxGeometry y="74" width="170" height="8" as="geometry" />
        </mxCell>
        <mxCell id="kGsRBveOM_xcWzTE8fmM-13" value="" style="shape=curlyBracket;whiteSpace=wrap;html=1;rounded=1;labelPosition=left;verticalLabelPosition=middle;align=right;verticalAlign=middle;rotation=90;" parent="1" vertex="1">
          <mxGeometry x="3533.62" y="718" width="34.75" height="773.57" as="geometry" />
        </mxCell>
        <mxCell id="kGsRBveOM_xcWzTE8fmM-31" value="_______(Vertex)" style="swimlane;html=1;fontStyle=1;align=center;verticalAlign=top;childLayout=stackLayout;horizontal=1;startSize=26;horizontalStack=0;resizeParent=1;resizeLast=0;collapsible=1;marginBottom=0;swimlaneFillColor=#ffffff;rounded=0;shadow=0;comic=0;labelBackgroundColor=none;strokeWidth=1;fillColor=none;fontFamily=Verdana;fontSize=12" parent="1" vertex="1">
          <mxGeometry x="3753" y="1130.5" width="170" height="130" as="geometry" />
        </mxCell>
        <mxCell id="kGsRBveOM_xcWzTE8fmM-32" value="+ ____: ____" style="text;html=1;strokeColor=none;fillColor=none;align=left;verticalAlign=top;spacingLeft=4;spacingRight=4;whiteSpace=wrap;overflow=hidden;rotatable=0;points=[[0,0.5],[1,0.5]];portConstraint=eastwest;" parent="kGsRBveOM_xcWzTE8fmM-31" vertex="1">
          <mxGeometry y="26" width="170" height="24" as="geometry" />
        </mxCell>
        <mxCell id="kGsRBveOM_xcWzTE8fmM-33" value="+ ____: ____" style="text;html=1;strokeColor=none;fillColor=none;align=left;verticalAlign=top;spacingLeft=4;spacingRight=4;whiteSpace=wrap;overflow=hidden;rotatable=0;points=[[0,0.5],[1,0.5]];portConstraint=eastwest;" parent="kGsRBveOM_xcWzTE8fmM-31" vertex="1">
          <mxGeometry y="50" width="170" height="24" as="geometry" />
        </mxCell>
        <mxCell id="kGsRBveOM_xcWzTE8fmM-65" value="+ measurements: dict" style="text;html=1;strokeColor=none;fillColor=none;align=left;verticalAlign=top;spacingLeft=4;spacingRight=4;whiteSpace=wrap;overflow=hidden;rotatable=0;points=[[0,0.5],[1,0.5]];portConstraint=eastwest;" parent="kGsRBveOM_xcWzTE8fmM-31" vertex="1">
          <mxGeometry y="74" width="170" height="24" as="geometry" />
        </mxCell>
        <mxCell id="kGsRBveOM_xcWzTE8fmM-34" value="+ time: array" style="text;html=1;strokeColor=none;fillColor=none;align=left;verticalAlign=top;spacingLeft=4;spacingRight=4;whiteSpace=wrap;overflow=hidden;rotatable=0;points=[[0,0.5],[1,0.5]];portConstraint=eastwest;" parent="kGsRBveOM_xcWzTE8fmM-31" vertex="1">
          <mxGeometry y="98" width="170" height="24" as="geometry" />
        </mxCell>
        <mxCell id="kGsRBveOM_xcWzTE8fmM-35" value="" style="line;html=1;strokeWidth=1;fillColor=none;align=left;verticalAlign=middle;spacingTop=-1;spacingLeft=3;spacingRight=3;rotatable=0;labelPosition=right;points=[];portConstraint=eastwest;" parent="kGsRBveOM_xcWzTE8fmM-31" vertex="1">
          <mxGeometry y="122" width="170" height="8" as="geometry" />
        </mxCell>
        <mxCell id="kGsRBveOM_xcWzTE8fmM-66" value="measurements:dict:&lt;br&gt;&quot;imu1&quot;: file, pose in file" style="text;html=1;strokeColor=none;fillColor=none;align=center;verticalAlign=middle;whiteSpace=wrap;rounded=0;" parent="1" vertex="1">
          <mxGeometry x="3171" y="1242" width="141" height="38.56" as="geometry" />
        </mxCell>
        <mxCell id="kGsRBveOM_xcWzTE8fmM-67" style="edgeStyle=orthogonalEdgeStyle;rounded=0;orthogonalLoop=1;jettySize=auto;html=1;entryX=0.1;entryY=0.5;entryDx=0;entryDy=0;entryPerimeter=0;" parent="1" source="kGsRBveOM_xcWzTE8fmM-68" target="kGsRBveOM_xcWzTE8fmM-88" edge="1">
          <mxGeometry relative="1" as="geometry" />
        </mxCell>
        <mxCell id="kGsRBveOM_xcWzTE8fmM-68" value="abstract Edge" style="swimlane;html=1;fontStyle=1;align=center;verticalAlign=top;childLayout=stackLayout;horizontal=1;startSize=26;horizontalStack=0;resizeParent=1;resizeLast=0;collapsible=1;marginBottom=0;swimlaneFillColor=#ffffff;rounded=0;shadow=0;comic=0;labelBackgroundColor=none;strokeWidth=1;fillColor=none;fontFamily=Verdana;fontSize=12" parent="1" vertex="1">
          <mxGeometry x="3475.99" y="1312" width="170" height="102" as="geometry" />
        </mxCell>
        <mxCell id="kGsRBveOM_xcWzTE8fmM-107" value="+ gtsam_edge: GTSAM_edge" style="text;html=1;strokeColor=none;fillColor=none;align=left;verticalAlign=top;spacingLeft=4;spacingRight=4;whiteSpace=wrap;overflow=hidden;rotatable=0;points=[[0,0.5],[1,0.5]];portConstraint=eastwest;" parent="kGsRBveOM_xcWzTE8fmM-68" vertex="1">
          <mxGeometry y="26" width="170" height="24" as="geometry" />
        </mxCell>
        <mxCell id="kGsRBveOM_xcWzTE8fmM-70" value="" style="line;html=1;strokeWidth=1;fillColor=none;align=left;verticalAlign=middle;spacingTop=-1;spacingLeft=3;spacingRight=3;rotatable=0;labelPosition=right;points=[];portConstraint=eastwest;" parent="kGsRBveOM_xcWzTE8fmM-68" vertex="1">
          <mxGeometry y="50" width="170" height="8" as="geometry" />
        </mxCell>
        <mxCell id="kGsRBveOM_xcWzTE8fmM-71" value="+ ____: -&amp;gt; None" style="text;html=1;strokeColor=none;fillColor=none;align=left;verticalAlign=top;spacingLeft=4;spacingRight=4;whiteSpace=wrap;overflow=hidden;rotatable=0;points=[[0,0.5],[1,0.5]];portConstraint=eastwest;" parent="kGsRBveOM_xcWzTE8fmM-68" vertex="1">
          <mxGeometry y="58" width="170" height="20" as="geometry" />
        </mxCell>
        <mxCell id="kGsRBveOM_xcWzTE8fmM-72" value="odom(Edge)" style="swimlane;html=1;fontStyle=1;align=center;verticalAlign=top;childLayout=stackLayout;horizontal=1;startSize=26;horizontalStack=0;resizeParent=1;resizeLast=0;collapsible=1;marginBottom=0;swimlaneFillColor=#ffffff;rounded=0;shadow=0;comic=0;labelBackgroundColor=none;strokeWidth=1;fillColor=none;fontFamily=Verdana;fontSize=12" parent="1" vertex="1">
          <mxGeometry x="3181" y="1463" width="170" height="119" as="geometry" />
        </mxCell>
        <mxCell id="kGsRBveOM_xcWzTE8fmM-95" value="+ vertex1: Pose()" style="text;html=1;strokeColor=none;fillColor=none;align=left;verticalAlign=top;spacingLeft=4;spacingRight=4;whiteSpace=wrap;overflow=hidden;rotatable=0;points=[[0,0.5],[1,0.5]];portConstraint=eastwest;" parent="kGsRBveOM_xcWzTE8fmM-72" vertex="1">
          <mxGeometry y="26" width="170" height="24" as="geometry" />
        </mxCell>
        <mxCell id="kGsRBveOM_xcWzTE8fmM-73" value="+ vertex2: Pose()" style="text;html=1;strokeColor=none;fillColor=none;align=left;verticalAlign=top;spacingLeft=4;spacingRight=4;whiteSpace=wrap;overflow=hidden;rotatable=0;points=[[0,0.5],[1,0.5]];portConstraint=eastwest;" parent="kGsRBveOM_xcWzTE8fmM-72" vertex="1">
          <mxGeometry y="50" width="170" height="24" as="geometry" />
        </mxCell>
        <mxCell id="kGsRBveOM_xcWzTE8fmM-74" value="+ num_integrations: int" style="text;html=1;strokeColor=none;fillColor=none;align=left;verticalAlign=top;spacingLeft=4;spacingRight=4;whiteSpace=wrap;overflow=hidden;rotatable=0;points=[[0,0.5],[1,0.5]];portConstraint=eastwest;" parent="kGsRBveOM_xcWzTE8fmM-72" vertex="1">
          <mxGeometry y="74" width="170" height="24" as="geometry" />
        </mxCell>
        <mxCell id="kGsRBveOM_xcWzTE8fmM-76" value="" style="line;html=1;strokeWidth=1;fillColor=none;align=left;verticalAlign=middle;spacingTop=-1;spacingLeft=3;spacingRight=3;rotatable=0;labelPosition=right;points=[];portConstraint=eastwest;" parent="kGsRBveOM_xcWzTE8fmM-72" vertex="1">
          <mxGeometry y="98" width="170" height="8" as="geometry" />
        </mxCell>
        <mxCell id="kGsRBveOM_xcWzTE8fmM-77" value="Prior(Edge)" style="swimlane;html=1;fontStyle=1;align=center;verticalAlign=top;childLayout=stackLayout;horizontal=1;startSize=26;horizontalStack=0;resizeParent=1;resizeLast=0;collapsible=1;marginBottom=0;swimlaneFillColor=#ffffff;rounded=0;shadow=0;comic=0;labelBackgroundColor=none;strokeWidth=1;fillColor=none;fontFamily=Verdana;fontSize=12" parent="1" vertex="1">
          <mxGeometry x="3373" y="1463" width="170" height="68" as="geometry" />
        </mxCell>
        <mxCell id="kGsRBveOM_xcWzTE8fmM-78" value="+ vertex: Vertex()" style="text;html=1;strokeColor=none;fillColor=none;align=left;verticalAlign=top;spacingLeft=4;spacingRight=4;whiteSpace=wrap;overflow=hidden;rotatable=0;points=[[0,0.5],[1,0.5]];portConstraint=eastwest;" parent="kGsRBveOM_xcWzTE8fmM-77" vertex="1">
          <mxGeometry y="26" width="170" height="24" as="geometry" />
        </mxCell>
        <mxCell id="kGsRBveOM_xcWzTE8fmM-81" value="" style="line;html=1;strokeWidth=1;fillColor=none;align=left;verticalAlign=middle;spacingTop=-1;spacingLeft=3;spacingRight=3;rotatable=0;labelPosition=right;points=[];portConstraint=eastwest;" parent="kGsRBveOM_xcWzTE8fmM-77" vertex="1">
          <mxGeometry y="50" width="170" height="8" as="geometry" />
        </mxCell>
        <mxCell id="kGsRBveOM_xcWzTE8fmM-88" value="" style="shape=curlyBracket;whiteSpace=wrap;html=1;rounded=1;labelPosition=left;verticalLabelPosition=middle;align=right;verticalAlign=middle;rotation=90;" parent="1" vertex="1">
          <mxGeometry x="3543.62" y="1048" width="34.75" height="773.57" as="geometry" />
        </mxCell>
        <mxCell id="kGsRBveOM_xcWzTE8fmM-89" value="_______(Edge)" style="swimlane;html=1;fontStyle=1;align=center;verticalAlign=top;childLayout=stackLayout;horizontal=1;startSize=26;horizontalStack=0;resizeParent=1;resizeLast=0;collapsible=1;marginBottom=0;swimlaneFillColor=#ffffff;rounded=0;shadow=0;comic=0;labelBackgroundColor=none;strokeWidth=1;fillColor=none;fontFamily=Verdana;fontSize=12" parent="1" vertex="1">
          <mxGeometry x="3763" y="1460.5" width="170" height="94.5" as="geometry" />
        </mxCell>
        <mxCell id="kGsRBveOM_xcWzTE8fmM-90" value="+ ____: ____" style="text;html=1;strokeColor=none;fillColor=none;align=left;verticalAlign=top;spacingLeft=4;spacingRight=4;whiteSpace=wrap;overflow=hidden;rotatable=0;points=[[0,0.5],[1,0.5]];portConstraint=eastwest;" parent="kGsRBveOM_xcWzTE8fmM-89" vertex="1">
          <mxGeometry y="26" width="170" height="24" as="geometry" />
        </mxCell>
        <mxCell id="kGsRBveOM_xcWzTE8fmM-91" value="+ ____: ____" style="text;html=1;strokeColor=none;fillColor=none;align=left;verticalAlign=top;spacingLeft=4;spacingRight=4;whiteSpace=wrap;overflow=hidden;rotatable=0;points=[[0,0.5],[1,0.5]];portConstraint=eastwest;" parent="kGsRBveOM_xcWzTE8fmM-89" vertex="1">
          <mxGeometry y="50" width="170" height="24" as="geometry" />
        </mxCell>
        <mxCell id="kGsRBveOM_xcWzTE8fmM-94" value="" style="line;html=1;strokeWidth=1;fillColor=none;align=left;verticalAlign=middle;spacingTop=-1;spacingLeft=3;spacingRight=3;rotatable=0;labelPosition=right;points=[];portConstraint=eastwest;" parent="kGsRBveOM_xcWzTE8fmM-89" vertex="1">
          <mxGeometry y="74" width="170" height="8" as="geometry" />
        </mxCell>
        <mxCell id="kGsRBveOM_xcWzTE8fmM-97" value="PoseLandmark(Edge)" style="swimlane;html=1;fontStyle=1;align=center;verticalAlign=top;childLayout=stackLayout;horizontal=1;startSize=26;horizontalStack=0;resizeParent=1;resizeLast=0;collapsible=1;marginBottom=0;swimlaneFillColor=#ffffff;rounded=0;shadow=0;comic=0;labelBackgroundColor=none;strokeWidth=1;fillColor=none;fontFamily=Verdana;fontSize=12" parent="1" vertex="1">
          <mxGeometry x="3568" y="1460.5" width="170" height="94.5" as="geometry" />
        </mxCell>
        <mxCell id="kGsRBveOM_xcWzTE8fmM-98" value="+ vertex1: Pose()" style="text;html=1;strokeColor=none;fillColor=none;align=left;verticalAlign=top;spacingLeft=4;spacingRight=4;whiteSpace=wrap;overflow=hidden;rotatable=0;points=[[0,0.5],[1,0.5]];portConstraint=eastwest;" parent="kGsRBveOM_xcWzTE8fmM-97" vertex="1">
          <mxGeometry y="26" width="170" height="24" as="geometry" />
        </mxCell>
        <mxCell id="kGsRBveOM_xcWzTE8fmM-99" value="+ vertex2: Landmark()" style="text;html=1;strokeColor=none;fillColor=none;align=left;verticalAlign=top;spacingLeft=4;spacingRight=4;whiteSpace=wrap;overflow=hidden;rotatable=0;points=[[0,0.5],[1,0.5]];portConstraint=eastwest;" parent="kGsRBveOM_xcWzTE8fmM-97" vertex="1">
          <mxGeometry y="50" width="170" height="24" as="geometry" />
        </mxCell>
        <mxCell id="kGsRBveOM_xcWzTE8fmM-103" value="" style="line;html=1;strokeWidth=1;fillColor=none;align=left;verticalAlign=middle;spacingTop=-1;spacingLeft=3;spacingRight=3;rotatable=0;labelPosition=right;points=[];portConstraint=eastwest;" parent="kGsRBveOM_xcWzTE8fmM-97" vertex="1">
          <mxGeometry y="74" width="170" height="8" as="geometry" />
        </mxCell>
        <mxCell id="kGsRBveOM_xcWzTE8fmM-108" value="Graph" style="swimlane;html=1;fontStyle=1;align=center;verticalAlign=top;childLayout=stackLayout;horizontal=1;startSize=26;horizontalStack=0;resizeParent=1;resizeLast=0;collapsible=1;marginBottom=0;swimlaneFillColor=#ffffff;rounded=0;shadow=0;comic=0;labelBackgroundColor=none;strokeWidth=1;fillColor=none;fontFamily=Verdana;fontSize=12" parent="1" vertex="1">
          <mxGeometry x="3842" y="695" width="195" height="274" as="geometry" />
        </mxCell>
        <mxCell id="kGsRBveOM_xcWzTE8fmM-109" value="+ gtsam_graph: GTSAM_graph" style="text;html=1;strokeColor=none;fillColor=none;align=left;verticalAlign=top;spacingLeft=4;spacingRight=4;whiteSpace=wrap;overflow=hidden;rotatable=0;points=[[0,0.5],[1,0.5]];portConstraint=eastwest;" parent="kGsRBveOM_xcWzTE8fmM-108" vertex="1">
          <mxGeometry y="26" width="195" height="24" as="geometry" />
        </mxCell>
        <mxCell id="kGsRBveOM_xcWzTE8fmM-112" value="+ vertices: list of Vertex()" style="text;html=1;strokeColor=none;fillColor=none;align=left;verticalAlign=top;spacingLeft=4;spacingRight=4;whiteSpace=wrap;overflow=hidden;rotatable=0;points=[[0,0.5],[1,0.5]];portConstraint=eastwest;" parent="kGsRBveOM_xcWzTE8fmM-108" vertex="1">
          <mxGeometry y="50" width="195" height="24" as="geometry" />
        </mxCell>
        <mxCell id="kGsRBveOM_xcWzTE8fmM-113" value="+ edges: list of Edge()" style="text;html=1;strokeColor=none;fillColor=none;align=left;verticalAlign=top;spacingLeft=4;spacingRight=4;whiteSpace=wrap;overflow=hidden;rotatable=0;points=[[0,0.5],[1,0.5]];portConstraint=eastwest;" parent="kGsRBveOM_xcWzTE8fmM-108" vertex="1">
          <mxGeometry y="74" width="195" height="24" as="geometry" />
        </mxCell>
        <mxCell id="kGsRBveOM_xcWzTE8fmM-117" value="+ num_vertices: int" style="text;html=1;strokeColor=none;fillColor=none;align=left;verticalAlign=top;spacingLeft=4;spacingRight=4;whiteSpace=wrap;overflow=hidden;rotatable=0;points=[[0,0.5],[1,0.5]];portConstraint=eastwest;" parent="kGsRBveOM_xcWzTE8fmM-108" vertex="1">
          <mxGeometry y="98" width="195" height="24" as="geometry" />
        </mxCell>
        <mxCell id="kGsRBveOM_xcWzTE8fmM-118" value="+ num_edges: int" style="text;html=1;strokeColor=none;fillColor=none;align=left;verticalAlign=top;spacingLeft=4;spacingRight=4;whiteSpace=wrap;overflow=hidden;rotatable=0;points=[[0,0.5],[1,0.5]];portConstraint=eastwest;" parent="kGsRBveOM_xcWzTE8fmM-108" vertex="1">
          <mxGeometry y="122" width="195" height="24" as="geometry" />
        </mxCell>
        <mxCell id="kGsRBveOM_xcWzTE8fmM-110" value="" style="line;html=1;strokeWidth=1;fillColor=none;align=left;verticalAlign=middle;spacingTop=-1;spacingLeft=3;spacingRight=3;rotatable=0;labelPosition=right;points=[];portConstraint=eastwest;" parent="kGsRBveOM_xcWzTE8fmM-108" vertex="1">
          <mxGeometry y="146" width="195" height="8" as="geometry" />
        </mxCell>
        <mxCell id="kGsRBveOM_xcWzTE8fmM-115" value="+ add_vertex(): -&amp;gt; None" style="text;html=1;strokeColor=none;fillColor=none;align=left;verticalAlign=top;spacingLeft=4;spacingRight=4;whiteSpace=wrap;overflow=hidden;rotatable=0;points=[[0,0.5],[1,0.5]];portConstraint=eastwest;" parent="kGsRBveOM_xcWzTE8fmM-108" vertex="1">
          <mxGeometry y="154" width="195" height="20" as="geometry" />
        </mxCell>
        <mxCell id="kGsRBveOM_xcWzTE8fmM-116" value="+ add_edge(): -&amp;gt; None" style="text;html=1;strokeColor=none;fillColor=none;align=left;verticalAlign=top;spacingLeft=4;spacingRight=4;whiteSpace=wrap;overflow=hidden;rotatable=0;points=[[0,0.5],[1,0.5]];portConstraint=eastwest;" parent="kGsRBveOM_xcWzTE8fmM-108" vertex="1">
          <mxGeometry y="174" width="195" height="20" as="geometry" />
        </mxCell>
        <mxCell id="kGsRBveOM_xcWzTE8fmM-114" value="+ delete_vertex(): -&amp;gt; None" style="text;html=1;strokeColor=none;fillColor=none;align=left;verticalAlign=top;spacingLeft=4;spacingRight=4;whiteSpace=wrap;overflow=hidden;rotatable=0;points=[[0,0.5],[1,0.5]];portConstraint=eastwest;" parent="kGsRBveOM_xcWzTE8fmM-108" vertex="1">
          <mxGeometry y="194" width="195" height="20" as="geometry" />
        </mxCell>
        <mxCell id="kGsRBveOM_xcWzTE8fmM-119" value="+ delete_edge(): -&amp;gt; None" style="text;html=1;strokeColor=none;fillColor=none;align=left;verticalAlign=top;spacingLeft=4;spacingRight=4;whiteSpace=wrap;overflow=hidden;rotatable=0;points=[[0,0.5],[1,0.5]];portConstraint=eastwest;" parent="kGsRBveOM_xcWzTE8fmM-108" vertex="1">
          <mxGeometry y="214" width="195" height="20" as="geometry" />
        </mxCell>
        <mxCell id="kGsRBveOM_xcWzTE8fmM-120" value="+ get_num(object_type): -&amp;gt; int" style="text;html=1;strokeColor=none;fillColor=none;align=left;verticalAlign=top;spacingLeft=4;spacingRight=4;whiteSpace=wrap;overflow=hidden;rotatable=0;points=[[0,0.5],[1,0.5]];portConstraint=eastwest;" parent="kGsRBveOM_xcWzTE8fmM-108" vertex="1">
          <mxGeometry y="234" width="195" height="20" as="geometry" />
        </mxCell>
        <mxCell id="kGsRBveOM_xcWzTE8fmM-111" value="+ update(): -&amp;gt; None" style="text;html=1;strokeColor=none;fillColor=none;align=left;verticalAlign=top;spacingLeft=4;spacingRight=4;whiteSpace=wrap;overflow=hidden;rotatable=0;points=[[0,0.5],[1,0.5]];portConstraint=eastwest;" parent="kGsRBveOM_xcWzTE8fmM-108" vertex="1">
          <mxGeometry y="254" width="195" height="20" as="geometry" />
        </mxCell>
        <mxCell id="v8FdowwnLifS80OCrfFS-8" style="edgeStyle=orthogonalEdgeStyle;rounded=0;orthogonalLoop=1;jettySize=auto;html=1;entryX=0.5;entryY=0;entryDx=0;entryDy=0;exitX=0.5;exitY=1;exitDx=0;exitDy=0;" parent="1" source="v8FdowwnLifS80OCrfFS-1" target="v8FdowwnLifS80OCrfFS-5" edge="1">
          <mxGeometry relative="1" as="geometry" />
        </mxCell>
        <mxCell id="v8FdowwnLifS80OCrfFS-9" style="edgeStyle=orthogonalEdgeStyle;rounded=0;orthogonalLoop=1;jettySize=auto;html=1;entryX=0.5;entryY=0;entryDx=0;entryDy=0;" parent="1" source="v8FdowwnLifS80OCrfFS-1" target="v8FdowwnLifS80OCrfFS-6" edge="1">
          <mxGeometry relative="1" as="geometry" />
        </mxCell>
        <mxCell id="v8FdowwnLifS80OCrfFS-10" style="edgeStyle=orthogonalEdgeStyle;rounded=0;orthogonalLoop=1;jettySize=auto;html=1;entryX=0.5;entryY=0;entryDx=0;entryDy=0;" parent="1" source="v8FdowwnLifS80OCrfFS-1" target="v8FdowwnLifS80OCrfFS-7" edge="1">
          <mxGeometry relative="1" as="geometry" />
        </mxCell>
        <mxCell id="v8FdowwnLifS80OCrfFS-1" value="GraphSynchronizer" style="swimlane;html=1;fontStyle=1;align=center;verticalAlign=top;childLayout=stackLayout;horizontal=1;startSize=26;horizontalStack=0;resizeParent=1;resizeLast=0;collapsible=1;marginBottom=0;swimlaneFillColor=#ffffff;rounded=0;shadow=0;comic=0;labelBackgroundColor=none;strokeWidth=1;fillColor=none;fontFamily=Verdana;fontSize=12" parent="1" vertex="1">
          <mxGeometry x="4292" y="931" width="170" height="102" as="geometry" />
        </mxCell>
        <mxCell id="v8FdowwnLifS80OCrfFS-2" value="+ graph: Graph()" style="text;html=1;strokeColor=none;fillColor=none;align=left;verticalAlign=top;spacingLeft=4;spacingRight=4;whiteSpace=wrap;overflow=hidden;rotatable=0;points=[[0,0.5],[1,0.5]];portConstraint=eastwest;" parent="v8FdowwnLifS80OCrfFS-1" vertex="1">
          <mxGeometry y="26" width="170" height="24" as="geometry" />
        </mxCell>
        <mxCell id="v8FdowwnLifS80OCrfFS-3" value="" style="line;html=1;strokeWidth=1;fillColor=none;align=left;verticalAlign=middle;spacingTop=-1;spacingLeft=3;spacingRight=3;rotatable=0;labelPosition=right;points=[];portConstraint=eastwest;" parent="v8FdowwnLifS80OCrfFS-1" vertex="1">
          <mxGeometry y="50" width="170" height="8" as="geometry" />
        </mxCell>
        <mxCell id="v8FdowwnLifS80OCrfFS-4" value="+ sync(chunk): -&amp;gt; None" style="text;html=1;strokeColor=none;fillColor=none;align=left;verticalAlign=top;spacingLeft=4;spacingRight=4;whiteSpace=wrap;overflow=hidden;rotatable=0;points=[[0,0.5],[1,0.5]];portConstraint=eastwest;" parent="v8FdowwnLifS80OCrfFS-1" vertex="1">
          <mxGeometry y="58" width="170" height="20" as="geometry" />
        </mxCell>
        <mxCell id="v8FdowwnLifS80OCrfFS-5" value="Interpolation" style="rounded=0;whiteSpace=wrap;html=1;" parent="1" vertex="1">
          <mxGeometry x="4172" y="1103" width="120" height="60" as="geometry" />
        </mxCell>
        <mxCell id="v8FdowwnLifS80OCrfFS-6" value="time-shift" style="rounded=0;whiteSpace=wrap;html=1;" parent="1" vertex="1">
          <mxGeometry x="4317" y="1103" width="120" height="60" as="geometry" />
        </mxCell>
        <mxCell id="v8FdowwnLifS80OCrfFS-7" value="ML-based regression" style="rounded=0;whiteSpace=wrap;html=1;" parent="1" vertex="1">
          <mxGeometry x="4462" y="1103" width="120" height="60" as="geometry" />
        </mxCell>
        <mxCell id="EjmUfwqav61t7TKIGewC-8" style="edgeStyle=orthogonalEdgeStyle;rounded=0;orthogonalLoop=1;jettySize=auto;html=1;entryX=0.5;entryY=0;entryDx=0;entryDy=0;" parent="1" source="EjmUfwqav61t7TKIGewC-1" target="EjmUfwqav61t7TKIGewC-5" edge="1">
          <mxGeometry relative="1" as="geometry" />
        </mxCell>
        <mxCell id="EjmUfwqav61t7TKIGewC-9" style="edgeStyle=orthogonalEdgeStyle;rounded=0;orthogonalLoop=1;jettySize=auto;html=1;entryX=0.5;entryY=0;entryDx=0;entryDy=0;" parent="1" source="EjmUfwqav61t7TKIGewC-1" target="EjmUfwqav61t7TKIGewC-6" edge="1">
          <mxGeometry relative="1" as="geometry" />
        </mxCell>
        <mxCell id="EjmUfwqav61t7TKIGewC-10" style="edgeStyle=orthogonalEdgeStyle;rounded=0;orthogonalLoop=1;jettySize=auto;html=1;entryX=0.5;entryY=0;entryDx=0;entryDy=0;" parent="1" source="EjmUfwqav61t7TKIGewC-1" target="EjmUfwqav61t7TKIGewC-7" edge="1">
          <mxGeometry relative="1" as="geometry" />
        </mxCell>
        <mxCell id="EjmUfwqav61t7TKIGewC-1" value="GraphSparcifier" style="swimlane;html=1;fontStyle=1;align=center;verticalAlign=top;childLayout=stackLayout;horizontal=1;startSize=26;horizontalStack=0;resizeParent=1;resizeLast=0;collapsible=1;marginBottom=0;swimlaneFillColor=#ffffff;rounded=0;shadow=0;comic=0;labelBackgroundColor=none;strokeWidth=1;fillColor=none;fontFamily=Verdana;fontSize=12" parent="1" vertex="1">
          <mxGeometry x="4292" y="678" width="170" height="102" as="geometry" />
        </mxCell>
        <mxCell id="EjmUfwqav61t7TKIGewC-2" value="+ graph: Graph()" style="text;html=1;strokeColor=none;fillColor=none;align=left;verticalAlign=top;spacingLeft=4;spacingRight=4;whiteSpace=wrap;overflow=hidden;rotatable=0;points=[[0,0.5],[1,0.5]];portConstraint=eastwest;" parent="EjmUfwqav61t7TKIGewC-1" vertex="1">
          <mxGeometry y="26" width="170" height="24" as="geometry" />
        </mxCell>
        <mxCell id="EjmUfwqav61t7TKIGewC-3" value="" style="line;html=1;strokeWidth=1;fillColor=none;align=left;verticalAlign=middle;spacingTop=-1;spacingLeft=3;spacingRight=3;rotatable=0;labelPosition=right;points=[];portConstraint=eastwest;" parent="EjmUfwqav61t7TKIGewC-1" vertex="1">
          <mxGeometry y="50" width="170" height="8" as="geometry" />
        </mxCell>
        <mxCell id="EjmUfwqav61t7TKIGewC-4" value="+ sparcify(): -&amp;gt; None" style="text;html=1;strokeColor=none;fillColor=none;align=left;verticalAlign=top;spacingLeft=4;spacingRight=4;whiteSpace=wrap;overflow=hidden;rotatable=0;points=[[0,0.5],[1,0.5]];portConstraint=eastwest;" parent="EjmUfwqav61t7TKIGewC-1" vertex="1">
          <mxGeometry y="58" width="170" height="20" as="geometry" />
        </mxCell>
        <mxCell id="EjmUfwqav61t7TKIGewC-5" value="marginalize tail" style="rounded=0;whiteSpace=wrap;html=1;" parent="1" vertex="1">
          <mxGeometry x="4172" y="820" width="120" height="60" as="geometry" />
        </mxCell>
        <mxCell id="EjmUfwqav61t7TKIGewC-6" value="marginalize horizontally" style="rounded=0;whiteSpace=wrap;html=1;" parent="1" vertex="1">
          <mxGeometry x="4317" y="820" width="120" height="60" as="geometry" />
        </mxCell>
        <mxCell id="EjmUfwqav61t7TKIGewC-7" value="smth else" style="rounded=0;whiteSpace=wrap;html=1;" parent="1" vertex="1">
          <mxGeometry x="4462" y="820" width="120" height="60" as="geometry" />
        </mxCell>
        <mxCell id="yU8ik0OFqHm6Xl1OI58Q-1" style="edgeStyle=orthogonalEdgeStyle;rounded=0;orthogonalLoop=1;jettySize=auto;html=1;entryX=0.5;entryY=0;entryDx=0;entryDy=0;exitX=0.5;exitY=1;exitDx=0;exitDy=0;" edge="1" parent="1" source="yU8ik0OFqHm6Xl1OI58Q-4" target="yU8ik0OFqHm6Xl1OI58Q-8">
          <mxGeometry relative="1" as="geometry" />
        </mxCell>
        <mxCell id="yU8ik0OFqHm6Xl1OI58Q-3" style="edgeStyle=orthogonalEdgeStyle;rounded=0;orthogonalLoop=1;jettySize=auto;html=1;entryX=0.5;entryY=0;entryDx=0;entryDy=0;" edge="1" parent="1" source="yU8ik0OFqHm6Xl1OI58Q-4" target="yU8ik0OFqHm6Xl1OI58Q-10">
          <mxGeometry relative="1" as="geometry" />
        </mxCell>
        <mxCell id="yU8ik0OFqHm6Xl1OI58Q-4" value="Builder" style="swimlane;html=1;fontStyle=1;align=center;verticalAlign=top;childLayout=stackLayout;horizontal=1;startSize=26;horizontalStack=0;resizeParent=1;resizeLast=0;collapsible=1;marginBottom=0;swimlaneFillColor=#ffffff;rounded=0;shadow=0;comic=0;labelBackgroundColor=none;strokeWidth=1;fillColor=none;fontFamily=Verdana;fontSize=12" vertex="1" parent="1">
          <mxGeometry x="4292" y="1218" width="170" height="102" as="geometry" />
        </mxCell>
        <mxCell id="yU8ik0OFqHm6Xl1OI58Q-5" value="+ graph: Graph()" style="text;html=1;strokeColor=none;fillColor=none;align=left;verticalAlign=top;spacingLeft=4;spacingRight=4;whiteSpace=wrap;overflow=hidden;rotatable=0;points=[[0,0.5],[1,0.5]];portConstraint=eastwest;" vertex="1" parent="yU8ik0OFqHm6Xl1OI58Q-4">
          <mxGeometry y="26" width="170" height="24" as="geometry" />
        </mxCell>
        <mxCell id="yU8ik0OFqHm6Xl1OI58Q-6" value="" style="line;html=1;strokeWidth=1;fillColor=none;align=left;verticalAlign=middle;spacingTop=-1;spacingLeft=3;spacingRight=3;rotatable=0;labelPosition=right;points=[];portConstraint=eastwest;" vertex="1" parent="yU8ik0OFqHm6Xl1OI58Q-4">
          <mxGeometry y="50" width="170" height="8" as="geometry" />
        </mxCell>
        <mxCell id="yU8ik0OFqHm6Xl1OI58Q-7" value="+ sync(chunk): -&amp;gt; None" style="text;html=1;strokeColor=none;fillColor=none;align=left;verticalAlign=top;spacingLeft=4;spacingRight=4;whiteSpace=wrap;overflow=hidden;rotatable=0;points=[[0,0.5],[1,0.5]];portConstraint=eastwest;" vertex="1" parent="yU8ik0OFqHm6Xl1OI58Q-4">
          <mxGeometry y="58" width="170" height="20" as="geometry" />
        </mxCell>
        <mxCell id="yU8ik0OFqHm6Xl1OI58Q-8" value="Verteces Initializer" style="rounded=0;whiteSpace=wrap;html=1;" vertex="1" parent="1">
          <mxGeometry x="4231" y="1373.81" width="120" height="60" as="geometry" />
        </mxCell>
        <mxCell id="yU8ik0OFqHm6Xl1OI58Q-10" value="Measurements Synchronizer" style="rounded=0;whiteSpace=wrap;html=1;" vertex="1" parent="1">
          <mxGeometry x="4408" y="1373.81" width="120" height="60" as="geometry" />
        </mxCell>
        <mxCell id="yU8ik0OFqHm6Xl1OI58Q-44" style="edgeStyle=orthogonalEdgeStyle;rounded=0;orthogonalLoop=1;jettySize=auto;html=1;entryX=0.5;entryY=0;entryDx=0;entryDy=0;" edge="1" parent="1" source="yU8ik0OFqHm6Xl1OI58Q-17" target="yU8ik0OFqHm6Xl1OI58Q-41">
          <mxGeometry relative="1" as="geometry" />
        </mxCell>
        <mxCell id="yU8ik0OFqHm6Xl1OI58Q-17" value="New Chunk" style="ellipse;shape=startState;fillColor=#00FF00;strokeColor=#ff0000;fontColor=#000000;" vertex="1" parent="1">
          <mxGeometry x="4522.86" y="1502" width="84" height="37" as="geometry" />
        </mxCell>
        <mxCell id="yU8ik0OFqHm6Xl1OI58Q-46" style="edgeStyle=orthogonalEdgeStyle;rounded=0;orthogonalLoop=1;jettySize=auto;html=1;entryX=0.5;entryY=0;entryDx=0;entryDy=0;" edge="1" parent="1" source="yU8ik0OFqHm6Xl1OI58Q-41" target="yU8ik0OFqHm6Xl1OI58Q-45">
          <mxGeometry relative="1" as="geometry" />
        </mxCell>
        <mxCell id="yU8ik0OFqHm6Xl1OI58Q-41" value="Verteces Initializer" style="whiteSpace=wrap;html=1;align=center;" vertex="1" parent="1">
          <mxGeometry x="4513.86" y="1568" width="100" height="40" as="geometry" />
        </mxCell>
        <mxCell id="yU8ik0OFqHm6Xl1OI58Q-48" value="&lt;font style=&quot;font-size: 22px;&quot;&gt;+&lt;/font&gt;" style="edgeStyle=orthogonalEdgeStyle;rounded=0;orthogonalLoop=1;jettySize=auto;html=1;entryX=0.5;entryY=0;entryDx=0;entryDy=0;" edge="1" parent="1" source="yU8ik0OFqHm6Xl1OI58Q-45" target="yU8ik0OFqHm6Xl1OI58Q-47">
          <mxGeometry x="-0.0385" y="12" relative="1" as="geometry">
            <mxPoint as="offset" />
          </mxGeometry>
        </mxCell>
        <mxCell id="yU8ik0OFqHm6Xl1OI58Q-50" style="edgeStyle=orthogonalEdgeStyle;rounded=0;orthogonalLoop=1;jettySize=auto;html=1;entryX=1;entryY=0.5;entryDx=0;entryDy=0;" edge="1" parent="1" source="yU8ik0OFqHm6Xl1OI58Q-45" target="yU8ik0OFqHm6Xl1OI58Q-49">
          <mxGeometry relative="1" as="geometry" />
        </mxCell>
        <mxCell id="yU8ik0OFqHm6Xl1OI58Q-54" value="&lt;font style=&quot;font-size: 22px;&quot;&gt;-&lt;/font&gt;" style="edgeLabel;html=1;align=center;verticalAlign=middle;resizable=0;points=[];" vertex="1" connectable="0" parent="yU8ik0OFqHm6Xl1OI58Q-50">
          <mxGeometry x="-0.2991" relative="1" as="geometry">
            <mxPoint x="-2" y="-15" as="offset" />
          </mxGeometry>
        </mxCell>
        <mxCell id="yU8ik0OFqHm6Xl1OI58Q-45" value="Map Measurements?" style="rhombus;fillColor=#ffffc0;strokeColor=#ff0000;" vertex="1" parent="1">
          <mxGeometry x="4482.36" y="1637" width="163" height="53" as="geometry" />
        </mxCell>
        <mxCell id="yU8ik0OFqHm6Xl1OI58Q-61" style="edgeStyle=orthogonalEdgeStyle;rounded=0;orthogonalLoop=1;jettySize=auto;html=1;entryX=0.5;entryY=0;entryDx=0;entryDy=0;" edge="1" parent="1" source="yU8ik0OFqHm6Xl1OI58Q-47" target="yU8ik0OFqHm6Xl1OI58Q-59">
          <mxGeometry relative="1" as="geometry">
            <Array as="points">
              <mxPoint x="4563.86" y="1944" />
              <mxPoint x="4445.86" y="1944" />
            </Array>
          </mxGeometry>
        </mxCell>
        <mxCell id="yU8ik0OFqHm6Xl1OI58Q-47" value="Init Map Verteces &amp;amp; attach measurements to them" style="whiteSpace=wrap;html=1;align=center;" vertex="1" parent="1">
          <mxGeometry x="4490.36" y="1844.5" width="147" height="67" as="geometry" />
        </mxCell>
        <mxCell id="yU8ik0OFqHm6Xl1OI58Q-52" value="&lt;font style=&quot;font-size: 22px;&quot;&gt;+&lt;/font&gt;" style="edgeStyle=orthogonalEdgeStyle;rounded=0;orthogonalLoop=1;jettySize=auto;html=1;entryX=0.5;entryY=0;entryDx=0;entryDy=0;" edge="1" parent="1" source="yU8ik0OFqHm6Xl1OI58Q-49" target="yU8ik0OFqHm6Xl1OI58Q-51">
          <mxGeometry x="-0.1057" y="11" relative="1" as="geometry">
            <mxPoint as="offset" />
          </mxGeometry>
        </mxCell>
        <mxCell id="yU8ik0OFqHm6Xl1OI58Q-58" value="&lt;font style=&quot;font-size: 22px;&quot;&gt;-&lt;/font&gt;" style="edgeStyle=orthogonalEdgeStyle;rounded=0;orthogonalLoop=1;jettySize=auto;html=1;entryX=0;entryY=0.5;entryDx=0;entryDy=0;" edge="1" parent="1" source="yU8ik0OFqHm6Xl1OI58Q-49" target="yU8ik0OFqHm6Xl1OI58Q-62">
          <mxGeometry x="-0.0571" y="-17" relative="1" as="geometry">
            <mxPoint x="4207.86" y="1663.5" as="targetPoint" />
            <Array as="points">
              <mxPoint x="4231" y="1664" />
              <mxPoint x="4231" y="2132" />
            </Array>
            <mxPoint as="offset" />
          </mxGeometry>
        </mxCell>
        <mxCell id="yU8ik0OFqHm6Xl1OI58Q-49" value="Any condition &#xa;for a new vertex?" style="rhombus;fillColor=#ffffc0;strokeColor=#ff0000;" vertex="1" parent="1">
          <mxGeometry x="4277.86" y="1622.5" width="134" height="82" as="geometry" />
        </mxCell>
        <mxCell id="yU8ik0OFqHm6Xl1OI58Q-56" style="edgeStyle=orthogonalEdgeStyle;rounded=0;orthogonalLoop=1;jettySize=auto;html=1;entryX=0.5;entryY=0;entryDx=0;entryDy=0;" edge="1" parent="1" source="yU8ik0OFqHm6Xl1OI58Q-51" target="yU8ik0OFqHm6Xl1OI58Q-55">
          <mxGeometry relative="1" as="geometry" />
        </mxCell>
        <mxCell id="yU8ik0OFqHm6Xl1OI58Q-51" value="Process measuremetns based on condition" style="whiteSpace=wrap;html=1;align=center;" vertex="1" parent="1">
          <mxGeometry x="4281.86" y="1760" width="126" height="63" as="geometry" />
        </mxCell>
        <mxCell id="yU8ik0OFqHm6Xl1OI58Q-60" style="edgeStyle=orthogonalEdgeStyle;rounded=0;orthogonalLoop=1;jettySize=auto;html=1;entryX=0.5;entryY=0;entryDx=0;entryDy=0;" edge="1" parent="1" source="yU8ik0OFqHm6Xl1OI58Q-55" target="yU8ik0OFqHm6Xl1OI58Q-59">
          <mxGeometry relative="1" as="geometry" />
        </mxCell>
        <mxCell id="yU8ik0OFqHm6Xl1OI58Q-55" value="Init New Verteces" style="whiteSpace=wrap;html=1;align=center;" vertex="1" parent="1">
          <mxGeometry x="4294.86" y="1858" width="100" height="40" as="geometry" />
        </mxCell>
        <mxCell id="yU8ik0OFqHm6Xl1OI58Q-63" style="edgeStyle=orthogonalEdgeStyle;rounded=0;orthogonalLoop=1;jettySize=auto;html=1;entryX=0.5;entryY=0;entryDx=0;entryDy=0;" edge="1" parent="1" source="yU8ik0OFqHm6Xl1OI58Q-59" target="yU8ik0OFqHm6Xl1OI58Q-62">
          <mxGeometry relative="1" as="geometry" />
        </mxCell>
        <mxCell id="yU8ik0OFqHm6Xl1OI58Q-59" value="Sync odom measurements" style="whiteSpace=wrap;html=1;align=center;" vertex="1" parent="1">
          <mxGeometry x="4390.86" y="1990" width="110" height="67" as="geometry" />
        </mxCell>
        <mxCell id="yU8ik0OFqHm6Xl1OI58Q-71" style="edgeStyle=orthogonalEdgeStyle;rounded=0;orthogonalLoop=1;jettySize=auto;html=1;entryX=0.5;entryY=0;entryDx=0;entryDy=0;" edge="1" parent="1" source="yU8ik0OFqHm6Xl1OI58Q-62" target="yU8ik0OFqHm6Xl1OI58Q-64">
          <mxGeometry relative="1" as="geometry" />
        </mxCell>
        <mxCell id="yU8ik0OFqHm6Xl1OI58Q-62" value="Process measurements" style="whiteSpace=wrap;html=1;align=center;" vertex="1" parent="1">
          <mxGeometry x="4390.86" y="2098" width="110" height="67" as="geometry" />
        </mxCell>
        <mxCell id="yU8ik0OFqHm6Xl1OI58Q-72" value="&lt;font style=&quot;font-size: 22px;&quot;&gt;+&lt;/font&gt;" style="edgeStyle=orthogonalEdgeStyle;rounded=0;orthogonalLoop=1;jettySize=auto;html=1;entryX=0.5;entryY=0;entryDx=0;entryDy=0;" edge="1" parent="1" source="yU8ik0OFqHm6Xl1OI58Q-64" target="yU8ik0OFqHm6Xl1OI58Q-66">
          <mxGeometry relative="1" as="geometry" />
        </mxCell>
        <mxCell id="yU8ik0OFqHm6Xl1OI58Q-74" style="edgeStyle=orthogonalEdgeStyle;rounded=0;orthogonalLoop=1;jettySize=auto;html=1;entryX=1;entryY=0.5;entryDx=0;entryDy=0;" edge="1" parent="1" source="yU8ik0OFqHm6Xl1OI58Q-64" target="yU8ik0OFqHm6Xl1OI58Q-73">
          <mxGeometry relative="1" as="geometry" />
        </mxCell>
        <mxCell id="yU8ik0OFqHm6Xl1OI58Q-64" value="New Verteces added?" style="rhombus;fillColor=#ffffc0;strokeColor=#ff0000;" vertex="1" parent="1">
          <mxGeometry x="4360.61" y="2204" width="170.5" height="53" as="geometry" />
        </mxCell>
        <mxCell id="yU8ik0OFqHm6Xl1OI58Q-70" style="edgeStyle=orthogonalEdgeStyle;rounded=0;orthogonalLoop=1;jettySize=auto;html=1;entryX=0.5;entryY=0;entryDx=0;entryDy=0;" edge="1" parent="1" source="yU8ik0OFqHm6Xl1OI58Q-66" target="yU8ik0OFqHm6Xl1OI58Q-103">
          <mxGeometry relative="1" as="geometry" />
        </mxCell>
        <mxCell id="yU8ik0OFqHm6Xl1OI58Q-66" value="Add factors" style="whiteSpace=wrap;html=1;align=center;" vertex="1" parent="1">
          <mxGeometry x="4390.86" y="2325" width="110" height="67" as="geometry" />
        </mxCell>
        <mxCell id="yU8ik0OFqHm6Xl1OI58Q-69" value="Solve graph" style="whiteSpace=wrap;html=1;align=center;fillColor=#d5e8d4;strokeColor=#82b366;" vertex="1" parent="1">
          <mxGeometry x="4390.86" y="2548" width="110" height="67" as="geometry" />
        </mxCell>
        <mxCell id="yU8ik0OFqHm6Xl1OI58Q-73" value="Log" style="ellipse;whiteSpace=wrap;html=1;align=center;fillColor=#f8cecc;strokeColor=#b85450;" vertex="1" parent="1">
          <mxGeometry x="4222.86" y="2212.12" width="67" height="36.75" as="geometry" />
        </mxCell>
        <mxCell id="yU8ik0OFqHm6Xl1OI58Q-84" style="edgeStyle=orthogonalEdgeStyle;rounded=0;orthogonalLoop=1;jettySize=auto;html=1;exitX=0;exitY=0;exitDx=0;exitDy=35;exitPerimeter=0;entryX=1;entryY=0.5;entryDx=0;entryDy=0;" edge="1" parent="1" source="yU8ik0OFqHm6Xl1OI58Q-75" target="yU8ik0OFqHm6Xl1OI58Q-82">
          <mxGeometry relative="1" as="geometry" />
        </mxCell>
        <mxCell id="yU8ik0OFqHm6Xl1OI58Q-75" value="&lt;font style=&quot;font-size: 16px;&quot;&gt;Verteces Initializer&lt;/font&gt;" style="shape=module;align=left;spacingLeft=20;align=center;verticalAlign=top;whiteSpace=wrap;html=1;" vertex="1" parent="1">
          <mxGeometry x="3452" y="1808" width="255" height="159" as="geometry" />
        </mxCell>
        <mxCell id="yU8ik0OFqHm6Xl1OI58Q-80" style="edgeStyle=orthogonalEdgeStyle;rounded=0;orthogonalLoop=1;jettySize=auto;html=1;entryX=0;entryY=0;entryDx=0;entryDy=15;entryPerimeter=0;" edge="1" parent="1" source="yU8ik0OFqHm6Xl1OI58Q-76" target="yU8ik0OFqHm6Xl1OI58Q-75">
          <mxGeometry relative="1" as="geometry" />
        </mxCell>
        <mxCell id="yU8ik0OFqHm6Xl1OI58Q-76" value="List of Map measurements" style="rounded=0;whiteSpace=wrap;html=1;" vertex="1" parent="1">
          <mxGeometry x="3289" y="1700" width="94" height="34" as="geometry" />
        </mxCell>
        <mxCell id="yU8ik0OFqHm6Xl1OI58Q-79" style="edgeStyle=orthogonalEdgeStyle;rounded=0;orthogonalLoop=1;jettySize=auto;html=1;entryX=0;entryY=0;entryDx=0;entryDy=15;entryPerimeter=0;" edge="1" parent="1" source="yU8ik0OFqHm6Xl1OI58Q-77" target="yU8ik0OFqHm6Xl1OI58Q-75">
          <mxGeometry relative="1" as="geometry" />
        </mxCell>
        <mxCell id="yU8ik0OFqHm6Xl1OI58Q-77" value="Time/Distance conditions" style="rounded=0;whiteSpace=wrap;html=1;" vertex="1" parent="1">
          <mxGeometry x="3289" y="1754" width="94" height="34" as="geometry" />
        </mxCell>
        <mxCell id="yU8ik0OFqHm6Xl1OI58Q-81" style="edgeStyle=orthogonalEdgeStyle;rounded=0;orthogonalLoop=1;jettySize=auto;html=1;entryX=0;entryY=0;entryDx=0;entryDy=15;entryPerimeter=0;" edge="1" parent="1" source="yU8ik0OFqHm6Xl1OI58Q-78" target="yU8ik0OFqHm6Xl1OI58Q-75">
          <mxGeometry relative="1" as="geometry" />
        </mxCell>
        <mxCell id="yU8ik0OFqHm6Xl1OI58Q-78" value="Chunk" style="rounded=0;whiteSpace=wrap;html=1;" vertex="1" parent="1">
          <mxGeometry x="3289" y="1806" width="94" height="34" as="geometry" />
        </mxCell>
        <mxCell id="yU8ik0OFqHm6Xl1OI58Q-82" value="Graph" style="rounded=0;whiteSpace=wrap;html=1;" vertex="1" parent="1">
          <mxGeometry x="3289" y="1870.5" width="94" height="34" as="geometry" />
        </mxCell>
        <mxCell id="yU8ik0OFqHm6Xl1OI58Q-87" style="edgeStyle=orthogonalEdgeStyle;rounded=0;orthogonalLoop=1;jettySize=auto;html=1;exitX=0;exitY=0;exitDx=0;exitDy=35;exitPerimeter=0;entryX=1;entryY=0.5;entryDx=0;entryDy=0;" edge="1" parent="1" source="yU8ik0OFqHm6Xl1OI58Q-88" target="yU8ik0OFqHm6Xl1OI58Q-95">
          <mxGeometry relative="1" as="geometry" />
        </mxCell>
        <mxCell id="yU8ik0OFqHm6Xl1OI58Q-88" value="&lt;span style=&quot;font-size: 16px;&quot;&gt;Measurements Synchronizer&lt;/span&gt;" style="shape=module;align=left;spacingLeft=20;align=center;verticalAlign=top;whiteSpace=wrap;html=1;" vertex="1" parent="1">
          <mxGeometry x="3452" y="2073" width="255" height="159" as="geometry" />
        </mxCell>
        <mxCell id="yU8ik0OFqHm6Xl1OI58Q-89" style="edgeStyle=orthogonalEdgeStyle;rounded=0;orthogonalLoop=1;jettySize=auto;html=1;entryX=0;entryY=0;entryDx=0;entryDy=15;entryPerimeter=0;" edge="1" parent="1" source="yU8ik0OFqHm6Xl1OI58Q-90" target="yU8ik0OFqHm6Xl1OI58Q-88">
          <mxGeometry relative="1" as="geometry" />
        </mxCell>
        <mxCell id="yU8ik0OFqHm6Xl1OI58Q-90" value="Graph" style="rounded=0;whiteSpace=wrap;html=1;" vertex="1" parent="1">
          <mxGeometry x="3289" y="2019" width="94" height="34" as="geometry" />
        </mxCell>
        <mxCell id="yU8ik0OFqHm6Xl1OI58Q-93" style="edgeStyle=orthogonalEdgeStyle;rounded=0;orthogonalLoop=1;jettySize=auto;html=1;entryX=0;entryY=0;entryDx=0;entryDy=15;entryPerimeter=0;" edge="1" parent="1" source="yU8ik0OFqHm6Xl1OI58Q-94" target="yU8ik0OFqHm6Xl1OI58Q-88">
          <mxGeometry relative="1" as="geometry" />
        </mxCell>
        <mxCell id="yU8ik0OFqHm6Xl1OI58Q-94" value="Chunk" style="rounded=0;whiteSpace=wrap;html=1;" vertex="1" parent="1">
          <mxGeometry x="3289" y="2071" width="94" height="34" as="geometry" />
        </mxCell>
        <mxCell id="yU8ik0OFqHm6Xl1OI58Q-95" value="Dict of synced measurements" style="rounded=0;whiteSpace=wrap;html=1;" vertex="1" parent="1">
          <mxGeometry x="3289" y="2135.5" width="94" height="34" as="geometry" />
        </mxCell>
        <mxCell id="yU8ik0OFqHm6Xl1OI58Q-96" style="edgeStyle=orthogonalEdgeStyle;rounded=0;orthogonalLoop=1;jettySize=auto;html=1;exitX=0;exitY=0;exitDx=0;exitDy=35;exitPerimeter=0;entryX=1;entryY=0.5;entryDx=0;entryDy=0;" edge="1" parent="1" source="yU8ik0OFqHm6Xl1OI58Q-97" target="yU8ik0OFqHm6Xl1OI58Q-102">
          <mxGeometry relative="1" as="geometry" />
        </mxCell>
        <mxCell id="yU8ik0OFqHm6Xl1OI58Q-97" value="&lt;span style=&quot;font-size: 16px;&quot;&gt;Factor Creator&lt;/span&gt;" style="shape=module;align=left;spacingLeft=20;align=center;verticalAlign=top;whiteSpace=wrap;html=1;" vertex="1" parent="1">
          <mxGeometry x="3452" y="2321" width="255" height="159" as="geometry" />
        </mxCell>
        <mxCell id="yU8ik0OFqHm6Xl1OI58Q-98" style="edgeStyle=orthogonalEdgeStyle;rounded=0;orthogonalLoop=1;jettySize=auto;html=1;entryX=0;entryY=0;entryDx=0;entryDy=15;entryPerimeter=0;" edge="1" parent="1" source="yU8ik0OFqHm6Xl1OI58Q-99" target="yU8ik0OFqHm6Xl1OI58Q-97">
          <mxGeometry relative="1" as="geometry" />
        </mxCell>
        <mxCell id="yU8ik0OFqHm6Xl1OI58Q-99" value="Graph" style="rounded=0;whiteSpace=wrap;html=1;" vertex="1" parent="1">
          <mxGeometry x="3289" y="2267" width="94" height="34" as="geometry" />
        </mxCell>
        <mxCell id="yU8ik0OFqHm6Xl1OI58Q-100" style="edgeStyle=orthogonalEdgeStyle;rounded=0;orthogonalLoop=1;jettySize=auto;html=1;entryX=0;entryY=0;entryDx=0;entryDy=15;entryPerimeter=0;" edge="1" parent="1" source="yU8ik0OFqHm6Xl1OI58Q-101" target="yU8ik0OFqHm6Xl1OI58Q-97">
          <mxGeometry relative="1" as="geometry" />
        </mxCell>
        <mxCell id="yU8ik0OFqHm6Xl1OI58Q-101" value="measurements from Measurements Processor" style="rounded=0;whiteSpace=wrap;html=1;" vertex="1" parent="1">
          <mxGeometry x="3244" y="2319" width="139" height="34" as="geometry" />
        </mxCell>
        <mxCell id="yU8ik0OFqHm6Xl1OI58Q-102" value="Factors" style="rounded=0;whiteSpace=wrap;html=1;" vertex="1" parent="1">
          <mxGeometry x="3289" y="2383.5" width="94" height="34" as="geometry" />
        </mxCell>
        <mxCell id="yU8ik0OFqHm6Xl1OI58Q-104" style="edgeStyle=orthogonalEdgeStyle;rounded=0;orthogonalLoop=1;jettySize=auto;html=1;entryX=0.5;entryY=0;entryDx=0;entryDy=0;" edge="1" parent="1" source="yU8ik0OFqHm6Xl1OI58Q-103" target="yU8ik0OFqHm6Xl1OI58Q-69">
          <mxGeometry relative="1" as="geometry" />
        </mxCell>
        <mxCell id="yU8ik0OFqHm6Xl1OI58Q-103" value="Check Anomalies" style="whiteSpace=wrap;html=1;align=center;" vertex="1" parent="1">
          <mxGeometry x="4390.86" y="2440" width="110" height="67" as="geometry" />
        </mxCell>
      </root>
    </mxGraphModel>
  </diagram>
</mxfile>
